<svg width="714" height="714" viewBox="0 0 714 714" fill="none" xmlns="http://www.w3.org/2000/svg">
<path d="M714 546.067H0V546.424H714V546.067Z" fill="#EBEBEB"/>
<path d="M642.457 569.044H595.162V569.401H642.457V569.044Z" fill="#EBEBEB"/>
<path d="M472.982 572.928H460.573V573.285H472.982V572.928Z" fill="#EBEBEB"/>
<path d="M593.734 555.792H566.331V556.149H593.734V555.792Z" fill="#EBEBEB"/>
<path d="M136.588 558.191H74.9131V558.548H136.588V558.191Z" fill="#EBEBEB"/>
<path d="M158.351 558.191H149.312V558.548H158.351V558.191Z" fill="#EBEBEB"/>
<path d="M321.514 564.217H187.739V564.574H321.514V564.217Z" fill="#EBEBEB"/>
<path d="M338.436 482.378H62.7036C60.5435 482.375 58.4732 481.514 56.9471 479.985C55.4211 478.456 54.564 476.385 54.564 474.225V86.6225C54.5828 84.4748 55.4482 82.4213 56.9722 80.908C58.4962 79.3946 60.5558 78.5437 62.7036 78.54H338.436C340.599 78.54 342.673 79.3991 344.202 80.9283C345.731 82.4574 346.59 84.5314 346.59 86.6939V474.225C346.59 476.387 345.731 478.461 344.202 479.99C342.673 481.519 340.599 482.378 338.436 482.378ZM62.7036 78.8256C60.6382 78.8294 58.6587 79.6525 57.1996 81.1143C55.7405 82.5761 54.921 84.5571 54.921 86.6225V474.225C54.921 476.29 55.7405 478.271 57.1996 479.733C58.6587 481.195 60.6382 482.018 62.7036 482.021H338.436C340.503 482.018 342.484 481.195 343.945 479.734C345.407 478.272 346.229 476.291 346.233 474.225V86.6225C346.229 84.5558 345.407 82.5748 343.945 81.1135C342.484 79.6521 340.503 78.8294 338.436 78.8256H62.7036Z" fill="#EBEBEB"/>
<path d="M647.326 482.378H371.58C369.418 482.375 367.347 481.514 365.818 479.986C364.29 478.458 363.43 476.386 363.426 474.225V86.6225C363.448 84.4735 364.317 82.42 365.843 80.9071C367.37 79.3941 369.431 78.5437 371.58 78.54H647.326C649.472 78.5475 651.528 79.4001 653.049 80.913C654.57 82.4259 655.433 84.4773 655.452 86.6225V474.225C655.452 476.382 654.597 478.452 653.074 479.98C651.551 481.508 649.484 482.371 647.326 482.378ZM371.58 78.8256C369.513 78.8294 367.532 79.6521 366.071 81.1135C364.609 82.5748 363.787 84.5558 363.783 86.6225V474.225C363.787 476.291 364.609 478.272 366.071 479.734C367.532 481.195 369.513 482.018 371.58 482.021H647.326C649.393 482.018 651.374 481.195 652.836 479.734C654.297 478.272 655.12 476.291 655.123 474.225V86.6225C655.12 84.5558 654.297 82.5748 652.836 81.1135C651.374 79.6521 649.393 78.8294 647.326 78.8256H371.58Z" fill="#EBEBEB"/>
<path d="M346.061 248.301H143.314V545.567H346.061V248.301Z" fill="#F0F0F0"/>
<path d="M338.893 257.654H150.468V312.561H338.893V257.654Z" fill="#E0E0E0"/>
<path d="M161.178 266.536H150.468V312.546H161.178V266.536Z" fill="#EBEBEB"/>
<path d="M212.943 266.536H202.233V312.546H212.943V266.536Z" fill="#EBEBEB"/>
<path d="M271.694 265.381L261.14 267.2L268.955 312.541L279.51 310.722L271.694 265.381Z" fill="#EBEBEB"/>
<path d="M174.444 272.605H163.734V312.561H174.444V272.605Z" fill="#EBEBEB"/>
<path d="M199.049 272.605H188.339V312.561H199.049V272.605Z" fill="#EBEBEB"/>
<path d="M261.153 272.605H250.443V312.561H261.153V272.605Z" fill="#EBEBEB"/>
<path d="M227.011 271.219L216.556 273.542L225.225 312.546L235.679 310.223L227.011 271.219Z" fill="#EBEBEB"/>
<path d="M183.698 264.251H178.343V312.546H183.698V264.251Z" fill="#EBEBEB"/>
<path d="M247.358 264.251H242.003V312.546H247.358V264.251Z" fill="#EBEBEB"/>
<path d="M150.483 376.164H338.907V321.257H150.483V376.164Z" fill="#E0E0E0"/>
<path d="M328.183 376.15H338.893V330.139H328.183V376.15Z" fill="#EBEBEB"/>
<path d="M276.432 376.15H287.142V330.139H276.432V376.15Z" fill="#EBEBEB"/>
<path d="M209.869 374.321L220.423 376.14L228.239 330.799L217.685 328.98L209.869 374.321Z" fill="#EBEBEB"/>
<path d="M314.917 376.164H325.627V336.208H314.917V376.164Z" fill="#EBEBEB"/>
<path d="M290.327 376.164H301.037V336.208H290.327V376.164Z" fill="#EBEBEB"/>
<path d="M228.223 376.164H238.933V336.208H228.223V376.164Z" fill="#EBEBEB"/>
<path d="M253.731 373.83L264.186 376.153L272.854 337.149L262.399 334.826L253.731 373.83Z" fill="#EBEBEB"/>
<path d="M305.664 376.15H311.019V327.855H305.664V376.15Z" fill="#EBEBEB"/>
<path d="M242.018 376.15H247.373V327.855H242.018V376.15Z" fill="#EBEBEB"/>
<path d="M161.178 330.139H150.468V376.15H161.178V330.139Z" fill="#EBEBEB"/>
<path d="M174.444 336.194H163.734V376.15H174.444V336.194Z" fill="#EBEBEB"/>
<path d="M199.049 336.194H188.339V376.15H199.049V336.194Z" fill="#EBEBEB"/>
<path d="M183.698 327.854H178.343V376.149H183.698V327.854Z" fill="#EBEBEB"/>
<path d="M338.893 384.846H150.468V439.753H338.893V384.846Z" fill="#E0E0E0"/>
<path d="M269.335 393.728H258.625V439.738H269.335V393.728Z" fill="#EBEBEB"/>
<path d="M328.094 392.569L317.54 394.388L325.356 439.73L335.91 437.911L328.094 392.569Z" fill="#EBEBEB"/>
<path d="M230.836 399.797H220.126V439.753H230.836V399.797Z" fill="#EBEBEB"/>
<path d="M255.44 399.797H244.73V439.753H255.44V399.797Z" fill="#EBEBEB"/>
<path d="M317.544 399.797H306.834V439.753H317.544V399.797Z" fill="#EBEBEB"/>
<path d="M283.407 398.413L272.952 400.736L281.621 439.74L292.075 437.416L283.407 398.413Z" fill="#EBEBEB"/>
<path d="M240.09 391.443H234.735V439.738H240.09V391.443Z" fill="#EBEBEB"/>
<path d="M303.75 391.443H298.395V439.738H303.75V391.443Z" fill="#EBEBEB"/>
<path d="M204.948 392.58L194.394 394.399L202.209 439.741L212.763 437.921L204.948 392.58Z" fill="#EBEBEB"/>
<path d="M194.394 399.797H183.684V439.753H194.394V399.797Z" fill="#EBEBEB"/>
<path d="M160.262 398.412L149.807 400.736L158.475 439.74L168.93 437.416L160.262 398.412Z" fill="#EBEBEB"/>
<path d="M180.613 391.443H175.258V439.738H180.613V391.443Z" fill="#EBEBEB"/>
<path d="M108.328 546.339H143.314L143.314 248.301H108.328L108.328 546.339Z" fill="#E0E0E0"/>
<path d="M464.728 538.556H435.012L450.634 411.264C451.009 408.605 452.315 406.164 454.321 404.378C456.327 402.592 458.902 401.576 461.587 401.511H591.192L572.185 538.499L464.728 538.556Z" fill="#F5F5F5"/>
<path d="M558.977 538.556H588.693L604.33 411.264C604.521 410.04 604.44 408.79 604.094 407.601C603.748 406.411 603.145 405.313 602.328 404.382C601.511 403.452 600.499 402.713 599.364 402.216C598.23 401.72 597 401.479 595.762 401.511H585.552C582.872 401.593 580.306 402.615 578.304 404.398C576.301 406.181 574.99 408.611 574.599 411.264L558.977 538.556Z" fill="#F0F0F0"/>
<path d="M548.038 538.356L553.421 476.809C553.535 475.474 554.103 474.218 555.031 473.252C555.959 472.285 557.19 471.665 558.519 471.497L560.733 471.212C562.52 470.988 564.175 470.156 565.42 468.856C566.666 467.556 567.426 465.866 567.573 464.072L568.558 452.847C568.655 451.759 568.525 450.663 568.175 449.628C567.825 448.593 567.264 447.642 566.526 446.836C565.789 446.03 564.891 445.387 563.892 444.946C562.892 444.506 561.811 444.279 560.719 444.279H610.384C611.477 444.279 612.558 444.506 613.557 444.946C614.557 445.387 615.455 446.03 616.192 446.836C616.929 447.642 617.491 448.593 617.841 449.628C618.191 450.663 618.321 451.759 618.224 452.847L617.239 464.072C617.092 465.866 616.332 467.556 615.086 468.856C613.841 470.156 612.185 470.988 610.399 471.212L608.185 471.497C606.857 471.668 605.627 472.288 604.7 473.254C603.772 474.221 603.203 475.475 603.087 476.809L597.704 538.356C597.511 540.519 596.517 542.532 594.915 543.998C593.314 545.465 591.222 546.279 589.05 546.281H539.384C541.556 546.279 543.648 545.465 545.249 543.998C546.851 542.532 547.845 540.519 548.038 538.356Z" fill="#E6E6E6"/>
<path d="M411.35 461.458C410.956 456.786 408.822 452.433 405.371 449.259C401.92 446.085 397.403 444.324 392.714 444.322H435.954C440.63 444.341 445.13 446.111 448.566 449.283C452.002 452.455 454.126 456.799 454.518 461.458L458.802 510.239H415.619L411.35 461.458Z" fill="#E6E6E6"/>
<path d="M373.508 444.379H392.7C397.388 444.381 401.906 446.143 405.357 449.316C408.808 452.49 410.942 456.843 411.335 461.515L415.619 510.296H518.607L522.891 461.515C523.28 456.854 525.403 452.509 528.84 449.336C532.276 446.164 536.778 444.395 541.455 444.379H560.661C561.754 444.379 562.834 444.606 563.834 445.046C564.834 445.487 565.731 446.13 566.469 446.936C567.206 447.742 567.768 448.693 568.118 449.728C568.468 450.763 568.598 451.859 568.501 452.947L567.516 464.171C567.369 465.966 566.609 467.656 565.363 468.956C564.118 470.256 562.462 471.088 560.676 471.311L558.462 471.597C557.133 471.765 555.902 472.385 554.974 473.352C554.046 474.318 553.478 475.574 553.364 476.909L548.038 538.356C547.845 540.519 546.85 542.532 545.249 543.998C543.648 545.465 541.556 546.279 539.384 546.281H394.842C392.67 546.279 390.578 545.465 388.977 543.998C387.376 542.532 386.381 540.519 386.188 538.356L380.805 476.809C380.686 475.476 380.116 474.223 379.189 473.257C378.263 472.291 377.034 471.671 375.707 471.497L373.493 471.212C371.706 470.986 370.05 470.154 368.803 468.854C367.555 467.555 366.791 465.866 366.639 464.072L365.668 452.847C365.585 451.767 365.727 450.682 366.083 449.659C366.44 448.636 367.004 447.697 367.739 446.902C368.475 446.107 369.368 445.473 370.36 445.039C371.353 444.605 372.424 444.38 373.508 444.379Z" fill="#F0F0F0"/>
<path d="M145.884 233.45C145.884 233.45 144.299 223.011 151.91 216.314C159.522 209.616 158.851 205.646 156.666 205.132C154.481 204.618 152.496 211.301 149.154 213.143C149.154 213.143 149.04 203.604 152.439 200.106C155.837 196.607 157.622 187.539 154.381 187.382C151.139 187.225 150.825 192.752 150.097 196.679C149.369 200.606 145.813 206.118 145.813 206.118C145.813 206.118 145.113 197.55 142.957 194.08C140.801 190.61 146.613 182.541 144.385 179.043C142.157 175.544 138.116 182.213 138.444 189.738C138.773 197.264 143.799 205.289 142.628 213.143C142.628 213.143 140.415 207.617 138.43 207.117C136.445 206.617 134.432 202.976 133.104 201.619C131.776 200.263 130.091 204.947 133.104 209.288C136.117 213.629 143.799 225.267 142.628 234.663L145.884 233.45Z" fill="#E6E6E6"/>
<path d="M150.426 228.694L152.925 244.331C153.104 245.466 153.035 246.627 152.723 247.733C152.411 248.839 151.863 249.865 151.117 250.739C150.37 251.613 149.443 252.315 148.399 252.796C147.356 253.277 146.22 253.527 145.071 253.527H142.415C141.265 253.527 140.129 253.277 139.086 252.796C138.042 252.315 137.115 251.613 136.368 250.739C135.622 249.865 135.074 248.839 134.762 247.733C134.45 246.627 134.381 245.466 134.561 244.331L137.088 228.694H150.426Z" fill="#E6E6E6"/>
<path d="M299.952 250.471H307.706V217.127H299.952V250.471Z" fill="#EBEBEB"/>
<path d="M262.452 250.471H270.206V217.127H262.452V250.471Z" fill="#EBEBEB"/>
<path d="M214.22 249.146L221.862 250.463L227.526 217.604L219.884 216.287L214.22 249.146Z" fill="#EBEBEB"/>
<path d="M290.341 250.457H298.095V221.511H290.341V250.457Z" fill="#EBEBEB"/>
<path d="M272.519 250.457H280.273V221.511H272.519V250.457Z" fill="#EBEBEB"/>
<path d="M227.509 250.457H235.263V221.511H227.509V250.457Z" fill="#EBEBEB"/>
<path d="M246.002 248.778L253.571 250.46L259.851 222.204L252.282 220.522L246.002 248.778Z" fill="#EBEBEB"/>
<path d="M283.63 250.471H287.514V215.471H283.63V250.471Z" fill="#EBEBEB"/>
<path d="M237.491 250.471H241.375V215.471H237.491V250.471Z" fill="#EBEBEB"/>
<path d="M209.845 223.996H172.045V250.086H209.845V223.996Z" fill="#EBEBEB"/>
<path d="M339.479 234.678H307.82V254.156H339.479V234.678Z" fill="#EBEBEB"/>
<path d="M332.082 217.556H316.245V237.034H332.082V217.556Z" fill="#EBEBEB"/>
<path d="M596.633 191.78H558.977V348.689H596.633V191.78Z" fill="#E0E0E0"/>
<path d="M451.762 349.117H592.591V191.795L451.762 191.795V349.117Z" fill="#E0E0E0"/>
<path d="M447.221 349.117H593.334V191.795L447.221 191.795V349.117Z" fill="#F0F0F0"/>
<path d="M453.476 341.877H587.336V196.793L453.476 196.793V341.877Z" fill="white"/>
<path d="M453.462 341.877H455.946V196.793H453.462V341.877Z" fill="#E0E0E0"/>
<path d="M455.546 301.137V305.049H587.693V301.137H455.546Z" fill="#E0E0E0"/>
<path d="M453.462 301.122H589.421V294.554H453.462V301.122Z" fill="#F0F0F0"/>
<path d="M357 610.556C509.914 610.556 633.875 603.318 633.875 594.391C633.875 585.463 509.914 578.226 357 578.226C204.086 578.226 80.125 585.463 80.125 594.391C80.125 603.318 204.086 610.556 357 610.556Z" fill="#F5F5F5"/>
<path d="M459.745 218.227H204.261C198.488 218.227 193.808 222.907 193.808 228.68V529.502C193.808 535.275 198.488 539.955 204.261 539.955H459.745C465.518 539.955 470.197 535.275 470.197 529.502V228.68C470.197 222.907 465.518 218.227 459.745 218.227Z" fill="#352DFF"/>
<path opacity="0.6" d="M459.745 218.227H204.261C198.488 218.227 193.808 222.907 193.808 228.68V529.502C193.808 535.275 198.488 539.955 204.261 539.955H459.745C465.518 539.955 470.197 535.275 470.197 529.502V228.68C470.197 222.907 465.518 218.227 459.745 218.227Z" fill="white"/>
<path d="M425.43 365.782H238.59V397.769H425.43V365.782Z" fill="white"/>
<g opacity="0.4">
<path d="M255.298 384.889V385.731H248.814V376.564H255.098V377.392H249.785V380.662H254.526V381.476H249.785V384.889H255.298Z" fill="#263238"/>
<path d="M256.597 381.776H260.039V382.575H256.597V381.776Z" fill="#263238"/>
<path d="M273.476 381.733V385.731H272.548V381.819C272.548 380.391 271.819 379.619 270.577 379.619C270.255 379.605 269.933 379.66 269.635 379.782C269.337 379.905 269.069 380.091 268.85 380.327C268.631 380.564 268.466 380.846 268.367 381.152C268.268 381.459 268.238 381.784 268.278 382.104V385.731H267.335V381.819C267.335 380.391 266.607 379.619 265.35 379.619C265.028 379.605 264.707 379.66 264.409 379.782C264.11 379.905 263.842 380.091 263.623 380.327C263.404 380.564 263.24 380.846 263.141 381.152C263.042 381.459 263.012 381.784 263.051 382.104V385.731H262.109V378.834H263.009V380.091C263.278 379.67 263.653 379.327 264.097 379.096C264.54 378.866 265.037 378.756 265.536 378.777C266.041 378.734 266.546 378.849 266.983 379.104C267.42 379.36 267.768 379.744 267.978 380.205C268.263 379.745 268.667 379.37 269.147 379.118C269.626 378.867 270.165 378.749 270.705 378.777C271.093 378.747 271.482 378.805 271.845 378.946C272.207 379.087 272.533 379.308 272.799 379.591C273.065 379.875 273.263 380.214 273.381 380.585C273.498 380.956 273.53 381.348 273.476 381.733Z" fill="#263238"/>
<path d="M281.216 381.447V385.731H280.316V384.646C280.06 385.032 279.705 385.342 279.288 385.544C278.871 385.745 278.407 385.829 277.945 385.788C276.389 385.788 275.432 384.974 275.432 383.789C275.432 382.604 276.118 381.833 278.088 381.833H280.273V381.419C280.273 380.233 279.616 379.591 278.331 379.591C277.492 379.581 276.678 379.87 276.032 380.405L275.618 379.719C276.425 379.07 277.439 378.736 278.474 378.777C278.838 378.733 279.208 378.77 279.556 378.888C279.904 379.005 280.221 379.199 280.484 379.456C280.747 379.712 280.949 380.024 281.076 380.368C281.203 380.713 281.25 381.082 281.216 381.447ZM280.273 383.661V382.533H278.117C276.789 382.533 276.346 383.047 276.346 383.761C276.346 384.475 276.989 385.06 278.088 385.06C278.554 385.091 279.018 384.972 279.411 384.72C279.804 384.468 280.106 384.097 280.273 383.661Z" fill="#263238"/>
<path d="M283.529 376.663C283.531 376.575 283.55 376.488 283.586 376.408C283.621 376.327 283.672 376.254 283.736 376.193C283.8 376.132 283.875 376.084 283.957 376.052C284.039 376.02 284.127 376.005 284.215 376.007C284.301 376.005 284.387 376.02 284.467 376.051C284.548 376.082 284.621 376.129 284.683 376.189C284.746 376.249 284.796 376.32 284.83 376.399C284.865 376.478 284.884 376.563 284.886 376.649C284.888 376.739 284.872 376.827 284.839 376.91C284.806 376.994 284.757 377.069 284.694 377.133C284.632 377.197 284.557 377.248 284.475 377.282C284.393 377.317 284.304 377.335 284.215 377.335C284.125 377.337 284.037 377.321 283.953 377.288C283.87 377.255 283.795 377.206 283.731 377.143C283.667 377.081 283.616 377.006 283.582 376.924C283.547 376.841 283.529 376.753 283.529 376.663ZM283.743 378.834H284.672V385.731H283.743V378.834Z" fill="#263238"/>
<path d="M287.256 376.007H288.185V385.731H287.256V376.007Z" fill="#263238"/>
</g>
<path d="M425.43 409.479H238.59V441.466H425.43V409.479Z" fill="white"/>
<g opacity="0.4">
<path d="M255.983 423.445C255.983 425.401 254.555 426.586 252.242 426.586H249.785V429.442H248.814V420.275H252.242C254.569 420.303 255.983 421.488 255.983 423.445ZM255.012 423.445C255.012 422.017 254.055 421.146 252.156 421.146H249.728V425.73H252.156C254.055 425.73 255.012 424.887 255.012 423.445Z" fill="#263238"/>
<path d="M263.023 425.201V429.485H262.124V428.4C261.868 428.786 261.513 429.096 261.096 429.298C260.678 429.499 260.214 429.583 259.753 429.542C258.196 429.542 257.24 428.728 257.24 427.529C257.24 426.329 257.925 425.544 259.896 425.544H262.081V425.116C262.081 423.945 261.41 423.302 260.124 423.302C259.29 423.291 258.479 423.58 257.84 424.116L257.411 423.416C258.225 422.781 259.236 422.453 260.267 422.488C260.637 422.44 261.012 422.477 261.365 422.596C261.719 422.714 262.04 422.912 262.306 423.174C262.571 423.435 262.774 423.753 262.898 424.105C263.023 424.456 263.065 424.831 263.023 425.201ZM262.095 427.4V426.272H259.896C258.568 426.272 258.139 426.801 258.139 427.515C258.139 428.229 258.768 428.8 259.882 428.8C260.352 428.835 260.821 428.717 261.219 428.465C261.618 428.213 261.925 427.84 262.095 427.4Z" fill="#263238"/>
<path d="M264.594 428.686L265.008 427.957C265.728 428.46 266.586 428.729 267.464 428.728C268.764 428.728 269.306 428.286 269.306 427.6C269.306 425.801 264.837 427.215 264.837 424.501C264.837 423.373 265.808 422.531 267.564 422.531C268.421 422.523 269.264 422.745 270.006 423.173L269.592 423.916C268.991 423.519 268.284 423.315 267.564 423.331C266.322 423.331 265.765 423.816 265.765 424.473C265.765 426.329 270.234 424.93 270.234 427.572C270.234 428.771 269.192 429.542 267.378 429.542C266.382 429.568 265.404 429.267 264.594 428.686Z" fill="#263238"/>
<path d="M270.991 428.686L271.42 427.957C272.132 428.466 272.986 428.736 273.861 428.728C275.175 428.728 275.704 428.286 275.704 427.6C275.704 425.801 271.248 427.215 271.248 424.502C271.248 423.373 272.219 422.531 273.961 422.531C274.819 422.52 275.663 422.742 276.403 423.173L276.003 423.916C275.397 423.521 274.685 423.317 273.961 423.331C272.719 423.331 272.176 423.816 272.176 424.473C272.176 426.329 276.646 424.93 276.646 427.572C276.646 428.771 275.589 429.542 273.79 429.542C272.789 429.566 271.807 429.266 270.991 428.686Z" fill="#263238"/>
<path d="M288.327 422.588L285.728 429.471H284.857L282.744 423.83L280.573 429.471H279.702L277.032 422.588H277.917L280.088 428.443L282.301 422.588H283.101L285.3 428.443L287.485 422.588H288.327Z" fill="#263238"/>
<path d="M288.841 426.029C288.841 425.335 289.047 424.656 289.433 424.078C289.819 423.5 290.368 423.05 291.01 422.784C291.652 422.518 292.358 422.449 293.04 422.584C293.721 422.72 294.347 423.054 294.838 423.546C295.329 424.037 295.664 424.663 295.8 425.344C295.935 426.026 295.866 426.732 295.6 427.374C295.334 428.016 294.884 428.564 294.306 428.95C293.728 429.336 293.049 429.542 292.354 429.542C291.889 429.558 291.425 429.478 290.991 429.307C290.558 429.136 290.164 428.878 289.835 428.549C289.505 428.219 289.247 427.826 289.076 427.392C288.905 426.959 288.825 426.495 288.841 426.029ZM294.91 426.029C294.888 425.526 294.718 425.04 294.422 424.632C294.125 424.225 293.716 423.913 293.244 423.737C292.772 423.56 292.258 423.526 291.767 423.639C291.276 423.751 290.828 424.006 290.481 424.371C290.133 424.736 289.901 425.195 289.812 425.692C289.724 426.188 289.783 426.699 289.982 427.162C290.182 427.625 290.513 428.018 290.935 428.294C291.357 428.57 291.85 428.716 292.354 428.714C292.703 428.721 293.049 428.655 293.371 428.521C293.692 428.387 293.983 428.187 294.223 427.934C294.464 427.682 294.649 427.382 294.767 427.054C294.885 426.726 294.934 426.377 294.91 426.029Z" fill="#263238"/>
<path d="M301.222 422.531V423.43H300.994C300.667 423.415 300.341 423.471 300.038 423.596C299.736 423.721 299.465 423.91 299.244 424.151C299.023 424.393 298.858 424.68 298.761 424.992C298.663 425.304 298.636 425.634 298.68 425.958V429.471H297.752V422.588H298.637V423.93C298.878 423.465 299.253 423.082 299.714 422.833C300.175 422.583 300.701 422.478 301.222 422.531Z" fill="#263238"/>
<path d="M309.119 419.832V429.542H308.234V428.186C307.957 428.637 307.565 429.007 307.098 429.258C306.632 429.509 306.107 429.631 305.578 429.614C304.686 429.557 303.85 429.163 303.24 428.512C302.629 427.86 302.289 427.001 302.289 426.108C302.289 425.215 302.629 424.356 303.24 423.704C303.85 423.053 304.686 422.659 305.578 422.602C306.1 422.591 306.616 422.716 307.075 422.967C307.534 423.218 307.918 423.584 308.191 424.03V419.832H309.119ZM308.205 426.101C308.183 425.597 308.013 425.111 307.716 424.704C307.42 424.296 307.01 423.985 306.538 423.808C306.066 423.631 305.553 423.597 305.062 423.71C304.57 423.823 304.123 424.078 303.776 424.443C303.428 424.808 303.196 425.267 303.107 425.763C303.018 426.259 303.077 426.77 303.277 427.233C303.477 427.696 303.808 428.09 304.23 428.366C304.651 428.642 305.145 428.788 305.649 428.785C306.004 428.793 306.357 428.726 306.684 428.587C307.011 428.449 307.305 428.242 307.546 427.982C307.788 427.721 307.971 427.413 308.085 427.076C308.199 426.74 308.24 426.383 308.205 426.029V426.101Z" fill="#263238"/>
</g>
<path opacity="0.2" d="M425.43 474.096H238.59V506.083H425.43V474.096Z" fill="black"/>
<g opacity="0.5">
<path d="M284.029 459.402H280.973L280.317 460.83H279.717L282.216 455.361H282.787L285.286 460.83H284.686L284.029 459.402ZM283.815 458.931L282.501 455.989L281.188 458.931H283.815Z" fill="black"/>
<path d="M286.085 455.061H286.642V460.858H286.085V455.061Z" fill="black"/>
<path d="M290.27 456.717V457.26H290.127C289.928 457.243 289.727 457.271 289.54 457.342C289.353 457.413 289.185 457.526 289.047 457.672C288.91 457.817 288.807 457.992 288.747 458.183C288.687 458.374 288.67 458.575 288.699 458.773V460.873H288.142V456.76H288.685V457.56C288.828 457.271 289.058 457.035 289.342 456.884C289.626 456.733 289.951 456.675 290.27 456.717Z" fill="black"/>
<path d="M294.811 458.974H291.312C291.323 459.174 291.374 459.37 291.461 459.55C291.548 459.731 291.671 459.892 291.821 460.025C291.971 460.158 292.146 460.259 292.336 460.324C292.525 460.389 292.726 460.415 292.926 460.402C293.163 460.41 293.4 460.367 293.619 460.276C293.838 460.184 294.035 460.047 294.197 459.873L294.497 460.23C294.202 460.54 293.822 460.756 293.404 460.85C292.987 460.945 292.551 460.914 292.151 460.761C291.751 460.609 291.405 460.341 291.157 459.993C290.909 459.644 290.769 459.23 290.755 458.802C290.742 458.531 290.784 458.259 290.879 458.005C290.975 457.751 291.121 457.518 291.31 457.323C291.499 457.128 291.726 456.973 291.977 456.869C292.228 456.765 292.497 456.713 292.769 456.717C293.041 456.711 293.311 456.761 293.562 456.864C293.813 456.968 294.04 457.123 294.228 457.319C294.416 457.515 294.561 457.748 294.654 458.004C294.747 458.259 294.786 458.531 294.768 458.802C294.768 458.802 294.811 458.916 294.811 458.974ZM291.369 458.559H294.225C294.225 458.181 294.075 457.817 293.807 457.55C293.539 457.282 293.176 457.131 292.797 457.131C292.419 457.131 292.056 457.282 291.788 457.55C291.52 457.817 291.369 458.181 291.369 458.559Z" fill="black"/>
<path d="M298.938 458.388V460.93H298.452V460.287C298.301 460.522 298.087 460.711 297.835 460.832C297.583 460.953 297.302 461.001 297.024 460.973C296.096 460.973 295.596 460.487 295.596 459.773C295.596 459.059 295.996 458.602 297.181 458.602H298.452V458.359C298.452 457.66 298.052 457.274 297.281 457.274C296.762 457.255 296.253 457.428 295.853 457.76L295.61 457.346C296.084 456.968 296.676 456.77 297.281 456.789C297.502 456.751 297.729 456.765 297.943 456.831C298.158 456.897 298.353 457.013 298.515 457.169C298.676 457.325 298.798 457.516 298.872 457.728C298.945 457.94 298.968 458.166 298.938 458.388ZM298.395 459.702V459.016H297.096C296.296 459.016 296.039 459.33 296.039 459.759C296.039 460.187 296.424 460.53 297.081 460.53C297.377 460.553 297.672 460.477 297.92 460.314C298.168 460.151 298.355 459.911 298.452 459.63L298.395 459.702Z" fill="black"/>
<path d="M304.164 455.061V460.858H303.636V460.044C303.474 460.317 303.241 460.541 302.961 460.692C302.682 460.843 302.368 460.915 302.051 460.901C301.526 460.858 301.036 460.619 300.679 460.231C300.323 459.844 300.125 459.336 300.125 458.809C300.125 458.283 300.323 457.775 300.679 457.387C301.036 457 301.526 456.761 302.051 456.717C302.36 456.709 302.666 456.779 302.941 456.922C303.216 457.064 303.45 457.274 303.621 457.531V455.061H304.164ZM303.621 458.802C303.607 458.503 303.506 458.215 303.33 457.974C303.154 457.732 302.911 457.547 302.63 457.442C302.35 457.338 302.046 457.317 301.754 457.384C301.463 457.451 301.197 457.602 300.99 457.818C300.784 458.034 300.645 458.306 300.592 458.601C300.538 458.895 300.573 459.199 300.69 459.474C300.807 459.749 301.003 459.983 301.253 460.148C301.502 460.313 301.794 460.401 302.094 460.401C302.306 460.414 302.519 460.381 302.718 460.305C302.917 460.229 303.098 460.112 303.248 459.96C303.398 459.809 303.514 459.627 303.588 459.428C303.662 459.228 303.693 459.015 303.679 458.802H303.621Z" fill="black"/>
<path d="M309.233 456.746L307.177 461.358C306.834 462.158 306.392 462.415 305.749 462.415C305.38 462.425 305.022 462.292 304.75 462.044L305.007 461.629C305.207 461.83 305.479 461.943 305.763 461.944C306.135 461.944 306.377 461.772 306.62 461.244L306.792 460.858L304.949 456.746H305.592L307.149 460.244L308.691 456.746H309.233Z" fill="black"/>
<path d="M315.174 458.388V460.93H314.646V460.287C314.494 460.522 314.28 460.711 314.028 460.832C313.776 460.953 313.496 461.001 313.218 460.973C312.289 460.973 311.79 460.487 311.79 459.773C311.79 459.059 312.189 458.602 313.375 458.602H314.674V458.359C314.674 457.66 314.289 457.274 313.517 457.274C312.998 457.255 312.49 457.428 312.089 457.76L311.832 457.346C312.311 456.968 312.908 456.771 313.517 456.789C313.738 456.751 313.965 456.765 314.179 456.831C314.394 456.897 314.589 457.013 314.751 457.169C314.912 457.325 315.034 457.516 315.108 457.728C315.181 457.94 315.204 458.166 315.174 458.388ZM314.617 459.702V459.016H313.332C312.532 459.016 312.275 459.33 312.275 459.759C312.275 460.187 312.661 460.53 313.318 460.53C313.602 460.541 313.883 460.46 314.118 460.297C314.352 460.135 314.527 459.901 314.617 459.63V459.702Z" fill="black"/>
<path d="M325.584 458.474V460.858H325.041V458.531C325.041 457.66 324.599 457.217 323.856 457.217C323.665 457.202 323.473 457.229 323.292 457.295C323.112 457.361 322.949 457.466 322.813 457.602C322.677 457.738 322.573 457.901 322.506 458.081C322.44 458.261 322.413 458.454 322.428 458.645V460.801H321.886V458.531C321.886 457.66 321.443 457.217 320.686 457.217C320.495 457.202 320.302 457.229 320.122 457.295C319.942 457.361 319.779 457.466 319.643 457.602C319.507 457.738 319.403 457.901 319.336 458.081C319.27 458.261 319.243 458.454 319.258 458.645V460.801H318.701V456.689H319.23V457.445C319.387 457.19 319.611 456.981 319.878 456.843C320.144 456.705 320.443 456.641 320.743 456.66C321.043 456.637 321.342 456.708 321.598 456.865C321.854 457.021 322.055 457.254 322.171 457.531C322.337 457.251 322.577 457.022 322.864 456.869C323.151 456.715 323.474 456.643 323.799 456.66C324.046 456.616 324.3 456.633 324.538 456.709C324.777 456.785 324.994 456.918 325.17 457.096C325.345 457.275 325.475 457.494 325.547 457.734C325.619 457.974 325.632 458.228 325.584 458.474Z" fill="black"/>
<path d="M330.639 458.973H327.198C327.227 459.378 327.414 459.754 327.719 460.021C328.024 460.288 328.421 460.425 328.826 460.401C329.061 460.41 329.296 460.368 329.513 460.276C329.73 460.185 329.924 460.047 330.082 459.873L330.397 460.23C330.196 460.449 329.951 460.622 329.677 460.738C329.404 460.854 329.108 460.91 328.811 460.901C328.528 460.919 328.245 460.878 327.979 460.78C327.713 460.681 327.47 460.528 327.267 460.331C327.064 460.133 326.904 459.894 326.799 459.631C326.694 459.368 326.645 459.085 326.655 458.802C326.655 458.272 326.866 457.763 327.241 457.388C327.616 457.013 328.124 456.803 328.654 456.803C329.185 456.803 329.693 457.013 330.068 457.388C330.443 457.763 330.654 458.272 330.654 458.802C330.654 458.802 330.639 458.916 330.639 458.973ZM327.198 458.559H330.125C330.125 458.171 329.971 457.799 329.697 457.524C329.422 457.25 329.05 457.096 328.662 457.096C328.273 457.096 327.901 457.25 327.627 457.524C327.352 457.799 327.198 458.171 327.198 458.559Z" fill="black"/>
<path d="M338.579 458.474V460.858H338.022V458.531C338.022 457.66 337.593 457.217 336.851 457.217C336.659 457.199 336.466 457.224 336.284 457.29C336.103 457.355 335.938 457.46 335.802 457.596C335.666 457.733 335.561 457.897 335.496 458.078C335.43 458.26 335.405 458.453 335.423 458.645V460.801H334.866V458.531C334.866 457.66 334.438 457.217 333.681 457.217C333.489 457.199 333.295 457.224 333.114 457.29C332.933 457.355 332.768 457.46 332.632 457.596C332.496 457.733 332.391 457.897 332.326 458.078C332.26 458.26 332.235 458.453 332.253 458.645V460.801H331.696V456.689H332.224V457.445C332.38 457.188 332.604 456.979 332.871 456.841C333.138 456.702 333.438 456.64 333.738 456.66C334.037 456.637 334.336 456.708 334.593 456.865C334.849 457.021 335.05 457.254 335.166 457.531C335.332 457.251 335.572 457.022 335.858 456.869C336.145 456.715 336.469 456.643 336.794 456.66C337.04 456.616 337.294 456.633 337.533 456.709C337.772 456.785 337.988 456.918 338.164 457.096C338.34 457.275 338.47 457.494 338.542 457.734C338.614 457.974 338.627 458.228 338.579 458.474Z" fill="black"/>
<path d="M344.263 458.802C344.276 459.077 344.233 459.351 344.136 459.608C344.039 459.865 343.89 460.1 343.699 460.297C343.507 460.494 343.277 460.649 343.023 460.753C342.768 460.857 342.495 460.908 342.22 460.901C341.904 460.915 341.589 460.843 341.31 460.692C341.031 460.541 340.798 460.317 340.635 460.044V460.858H340.093V455.061H340.65V457.531C340.82 457.273 341.054 457.062 341.329 456.92C341.604 456.777 341.911 456.707 342.22 456.717C342.495 456.709 342.767 456.758 343.022 456.86C343.276 456.962 343.506 457.116 343.698 457.312C343.89 457.508 344.039 457.742 344.136 457.998C344.234 458.255 344.276 458.528 344.263 458.802ZM343.706 458.802C343.692 458.503 343.59 458.215 343.414 457.974C343.238 457.732 342.995 457.547 342.715 457.442C342.434 457.338 342.13 457.317 341.838 457.384C341.547 457.451 341.281 457.602 341.075 457.818C340.868 458.034 340.729 458.306 340.676 458.601C340.623 458.895 340.657 459.199 340.774 459.474C340.892 459.749 341.087 459.983 341.337 460.148C341.586 460.313 341.879 460.401 342.178 460.401C342.386 460.406 342.592 460.367 342.784 460.287C342.977 460.208 343.15 460.089 343.294 459.938C343.437 459.788 343.548 459.609 343.619 459.413C343.69 459.218 343.72 459.01 343.706 458.802Z" fill="black"/>
<path d="M348.989 458.973H345.576C345.587 459.174 345.638 459.37 345.725 459.55C345.812 459.731 345.934 459.892 346.084 460.025C346.235 460.158 346.41 460.259 346.599 460.324C346.789 460.389 346.99 460.415 347.19 460.401C347.427 460.401 347.662 460.349 347.876 460.248C348.091 460.146 348.281 459.999 348.432 459.816L348.746 460.173C348.451 460.483 348.071 460.699 347.654 460.793C347.236 460.888 346.8 460.857 346.4 460.704C346.001 460.551 345.655 460.284 345.407 459.936C345.158 459.587 345.019 459.173 345.005 458.745C344.991 458.474 345.033 458.202 345.129 457.948C345.224 457.693 345.371 457.461 345.56 457.266C345.748 457.07 345.975 456.916 346.226 456.812C346.477 456.707 346.747 456.656 347.018 456.66C347.29 456.653 347.559 456.704 347.81 456.807C348.06 456.911 348.286 457.066 348.473 457.262C348.66 457.459 348.804 457.692 348.895 457.948C348.987 458.203 349.023 458.475 349.003 458.745L348.989 458.973ZM345.548 458.559H348.404C348.404 458.181 348.253 457.817 347.985 457.55C347.718 457.282 347.354 457.131 346.976 457.131C346.597 457.131 346.234 457.282 345.966 457.55C345.698 457.817 345.548 458.181 345.548 458.559Z" fill="black"/>
<path d="M352.202 456.717V457.26H352.074C351.874 457.243 351.674 457.271 351.487 457.342C351.3 457.413 351.131 457.526 350.994 457.672C350.857 457.817 350.754 457.992 350.694 458.183C350.633 458.374 350.617 458.575 350.646 458.774V460.873H350.089V456.76H350.617V457.56C350.762 457.273 350.992 457.038 351.276 456.887C351.56 456.736 351.883 456.677 352.202 456.717Z" fill="black"/>
<path d="M355.801 456.789C355.801 456.217 355.344 455.832 354.544 455.832C354.263 455.816 353.982 455.864 353.722 455.973C353.462 456.082 353.23 456.249 353.044 456.46L352.63 456.146C352.874 455.871 353.176 455.655 353.515 455.514C353.854 455.373 354.22 455.311 354.587 455.332C355.686 455.332 356.386 455.86 356.386 456.76C356.386 458.088 354.958 458.188 354.958 459.273H354.373C354.373 457.931 355.801 457.802 355.801 456.789ZM354.258 460.487C354.276 460.392 354.327 460.307 354.401 460.245C354.475 460.183 354.569 460.15 354.665 460.15C354.762 460.15 354.855 460.183 354.93 460.245C355.004 460.307 355.054 460.392 355.072 460.487C355.083 460.547 355.081 460.608 355.066 460.667C355.051 460.726 355.023 460.781 354.984 460.828C354.945 460.875 354.896 460.913 354.841 460.938C354.786 460.964 354.726 460.978 354.665 460.978C354.604 460.978 354.544 460.964 354.489 460.938C354.434 460.913 354.385 460.875 354.347 460.828C354.308 460.781 354.28 460.726 354.264 460.667C354.249 460.608 354.247 460.547 354.258 460.487Z" fill="black"/>
<path d="M359.67 455.389H360.941V459.816H363.683V460.844H359.67V455.389Z" fill="black"/>
<path d="M363.969 458.759C363.94 458.297 364.051 457.836 364.287 457.437C364.524 457.039 364.874 456.72 365.293 456.523C365.713 456.326 366.182 456.259 366.639 456.332C367.097 456.404 367.523 456.612 367.861 456.929C368.199 457.247 368.433 457.658 368.535 458.11C368.636 458.562 368.6 459.034 368.43 459.466C368.26 459.897 367.964 460.267 367.581 460.528C367.198 460.789 366.746 460.929 366.282 460.93C365.985 460.949 365.688 460.908 365.408 460.807C365.128 460.707 364.871 460.55 364.654 460.347C364.437 460.143 364.264 459.897 364.147 459.624C364.029 459.351 363.968 459.057 363.969 458.759ZM367.353 458.759C367.336 458.552 367.26 458.354 367.132 458.189C367.005 458.025 366.833 457.901 366.636 457.833C366.44 457.765 366.227 457.755 366.026 457.806C365.824 457.856 365.641 457.965 365.5 458.117C365.358 458.27 365.265 458.46 365.23 458.666C365.195 458.871 365.22 459.081 365.303 459.272C365.386 459.463 365.523 459.625 365.697 459.74C365.871 459.854 366.074 459.915 366.282 459.916C366.431 459.919 366.579 459.89 366.716 459.831C366.852 459.773 366.975 459.687 367.077 459.577C367.178 459.468 367.255 459.339 367.302 459.198C367.35 459.057 367.367 458.907 367.353 458.759Z" fill="black"/>
<path d="M373.751 456.646V460.159C373.79 460.474 373.755 460.795 373.649 461.095C373.544 461.395 373.37 461.666 373.141 461.888C372.913 462.109 372.636 462.275 372.333 462.371C372.03 462.467 371.709 462.492 371.394 462.443C370.66 462.472 369.935 462.267 369.324 461.858L369.809 460.987C370.226 461.285 370.724 461.45 371.237 461.458C372.094 461.458 372.48 461.073 372.48 460.316V460.13C372.309 460.308 372.102 460.447 371.873 460.538C371.644 460.629 371.398 460.67 371.152 460.658C370.87 460.682 370.587 460.647 370.319 460.555C370.052 460.464 369.807 460.318 369.599 460.127C369.391 459.935 369.225 459.703 369.111 459.444C368.998 459.186 368.939 458.906 368.939 458.624C368.939 458.341 368.998 458.062 369.111 457.803C369.225 457.544 369.391 457.312 369.599 457.121C369.807 456.929 370.052 456.783 370.319 456.692C370.587 456.6 370.87 456.565 371.152 456.589C371.42 456.567 371.69 456.61 371.939 456.715C372.187 456.819 372.407 456.982 372.58 457.188V456.646H373.751ZM372.551 458.631C372.556 458.488 372.53 458.345 372.475 458.213C372.421 458.081 372.339 457.961 372.235 457.863C372.131 457.764 372.008 457.689 371.873 457.642C371.738 457.594 371.594 457.576 371.451 457.588C371.305 457.571 371.157 457.585 371.017 457.629C370.876 457.673 370.747 457.747 370.637 457.845C370.527 457.942 370.439 458.062 370.379 458.197C370.318 458.331 370.287 458.476 370.287 458.624C370.287 458.771 370.318 458.916 370.379 459.051C370.439 459.185 370.527 459.305 370.637 459.403C370.747 459.5 370.876 459.574 371.017 459.618C371.157 459.662 371.305 459.676 371.451 459.659C371.593 459.671 371.735 459.653 371.869 459.607C372.003 459.56 372.126 459.486 372.23 459.389C372.333 459.292 372.416 459.175 372.471 459.044C372.526 458.913 372.554 458.773 372.551 458.631Z" fill="black"/>
<path d="M376.992 455.389C376.994 455.293 377.015 455.199 377.055 455.112C377.094 455.025 377.151 454.947 377.222 454.882C377.293 454.818 377.376 454.769 377.467 454.738C377.558 454.708 377.654 454.696 377.749 454.704C377.842 454.694 377.937 454.703 378.027 454.732C378.116 454.76 378.199 454.806 378.27 454.868C378.341 454.929 378.399 455.005 378.439 455.09C378.48 455.174 378.502 455.267 378.506 455.361C378.506 455.561 378.426 455.754 378.284 455.896C378.142 456.038 377.95 456.117 377.749 456.117C377.548 456.117 377.356 456.038 377.214 455.896C377.072 455.754 376.992 455.561 376.992 455.361V455.389ZM377.135 456.646H378.349V460.93H377.135V456.646Z" fill="black"/>
<path d="M383.761 458.388V460.801H382.547V458.588C382.547 457.902 382.233 457.588 381.69 457.588C381.147 457.588 380.676 457.945 380.676 458.716V460.801H379.462V456.517H380.633V457.017C380.817 456.827 381.04 456.679 381.287 456.583C381.533 456.487 381.797 456.445 382.061 456.46C382.308 456.448 382.554 456.491 382.782 456.587C383.009 456.683 383.212 456.829 383.376 457.014C383.539 457.2 383.658 457.419 383.725 457.657C383.792 457.895 383.804 458.145 383.761 458.388Z" fill="black"/>
</g>
<path d="M425.43 472.14H238.59V504.127H425.43V472.14Z" fill="#352DFF"/>
<path d="M307.877 493.103L305.592 489.804H304.907H302.193V493.131H300.623V482.178H304.907C307.763 482.178 309.462 483.606 309.462 486.005C309.498 486.765 309.283 487.516 308.849 488.14C308.415 488.765 307.787 489.23 307.063 489.461L309.662 493.131L307.877 493.103ZM307.877 485.963C307.877 484.392 306.834 483.506 304.821 483.506H302.165V488.433H304.821C306.792 488.447 307.834 487.533 307.834 485.977L307.877 485.963Z" fill="white"/>
<path d="M319.187 489.461H312.461C312.567 490.168 312.933 490.809 313.488 491.258C314.043 491.707 314.747 491.932 315.46 491.889C315.908 491.905 316.354 491.824 316.768 491.651C317.182 491.479 317.554 491.219 317.859 490.889L318.687 491.86C318.076 492.481 317.299 492.911 316.449 493.101C315.599 493.291 314.712 493.231 313.895 492.93C313.078 492.628 312.366 492.098 311.843 491.401C311.32 490.705 311.009 489.873 310.947 489.004C310.917 488.444 311.004 487.883 311.201 487.357C311.399 486.831 311.703 486.352 312.095 485.95C312.486 485.548 312.957 485.231 313.477 485.019C313.997 484.807 314.556 484.706 315.117 484.72C315.675 484.705 316.231 484.807 316.747 485.019C317.264 485.231 317.73 485.55 318.116 485.953C318.502 486.357 318.8 486.837 318.989 487.362C319.178 487.888 319.255 488.447 319.215 489.004C319.215 489.133 319.201 489.318 319.187 489.461ZM312.461 488.376H317.773C317.705 487.719 317.396 487.111 316.905 486.668C316.414 486.226 315.777 485.981 315.117 485.981C314.456 485.981 313.819 486.226 313.329 486.668C312.838 487.111 312.529 487.719 312.461 488.376Z" fill="white"/>
<path d="M329.24 484.82V491.96C329.24 494.888 327.74 496.244 324.956 496.244C323.535 496.305 322.136 495.871 321 495.016L321.714 493.859C322.628 494.569 323.756 494.947 324.913 494.93C326.869 494.93 327.769 494.031 327.769 492.146V491.489C327.399 491.913 326.939 492.249 326.423 492.471C325.906 492.694 325.346 492.797 324.784 492.774C323.72 492.774 322.699 492.351 321.947 491.599C321.194 490.846 320.771 489.826 320.771 488.761C320.771 487.697 321.194 486.677 321.947 485.924C322.699 485.172 323.72 484.749 324.784 484.749C325.372 484.731 325.956 484.851 326.489 485.099C327.022 485.347 327.489 485.716 327.854 486.177V484.892L329.24 484.82ZM327.812 488.747C327.843 488.177 327.703 487.61 327.408 487.12C327.114 486.63 326.68 486.24 326.162 485.999C325.643 485.759 325.065 485.679 324.501 485.771C323.937 485.863 323.414 486.122 322.998 486.514C322.583 486.907 322.295 487.415 322.171 487.973C322.048 488.531 322.094 489.113 322.305 489.644C322.516 490.175 322.881 490.63 323.354 490.952C323.826 491.273 324.384 491.445 324.956 491.446C325.321 491.468 325.687 491.414 326.03 491.287C326.374 491.161 326.688 490.965 326.952 490.711C327.216 490.458 327.425 490.153 327.565 489.815C327.706 489.477 327.775 489.113 327.769 488.747H327.812Z" fill="white"/>
<path d="M331.838 482.25C331.84 482.119 331.868 481.989 331.92 481.868C331.972 481.748 332.047 481.639 332.141 481.547C332.235 481.456 332.347 481.384 332.469 481.335C332.591 481.287 332.721 481.263 332.852 481.264C332.991 481.248 333.131 481.261 333.264 481.302C333.397 481.344 333.52 481.413 333.624 481.505C333.729 481.598 333.812 481.711 333.869 481.838C333.926 481.965 333.956 482.103 333.956 482.243C333.956 482.382 333.926 482.52 333.869 482.647C333.812 482.774 333.729 482.888 333.624 482.98C333.52 483.072 333.397 483.142 333.264 483.183C333.131 483.225 332.991 483.238 332.852 483.221C332.722 483.225 332.592 483.202 332.47 483.155C332.348 483.109 332.236 483.038 332.142 482.948C332.048 482.857 331.972 482.749 331.92 482.629C331.868 482.509 331.84 482.38 331.838 482.25ZM332.11 484.82H333.609V493.103H332.11V484.82Z" fill="white"/>
<path d="M335.423 492.232L336.051 491.046C336.902 491.599 337.893 491.896 338.907 491.903C340.335 491.903 340.878 491.475 340.878 490.775C340.878 488.919 335.637 490.532 335.637 487.219C335.637 485.791 336.965 484.735 339.093 484.735C340.146 484.718 341.185 484.979 342.106 485.491L341.463 486.677C340.75 486.228 339.921 485.999 339.079 486.02C337.765 486.02 337.122 486.505 337.122 487.162C337.122 489.119 342.377 487.519 342.377 490.746C342.377 492.174 340.949 493.203 338.793 493.203C337.598 493.22 336.425 492.882 335.423 492.232Z" fill="white"/>
<path d="M348.975 492.66C348.455 493.057 347.815 493.264 347.161 493.245C346.809 493.286 346.452 493.247 346.117 493.131C345.781 493.015 345.477 492.825 345.224 492.576C344.972 492.326 344.779 492.023 344.66 491.69C344.54 491.356 344.497 490.999 344.533 490.646V486.091H343.105V484.863H344.533V483.049H345.961V484.863H348.432V486.091H346.047V490.589C346.013 490.773 346.023 490.962 346.074 491.142C346.125 491.322 346.218 491.487 346.343 491.625C346.469 491.763 346.625 491.871 346.799 491.939C346.973 492.007 347.16 492.034 347.347 492.017C347.769 492.022 348.18 491.886 348.518 491.632L348.975 492.66Z" fill="white"/>
<path d="M357.971 489.461H351.288C351.394 490.17 351.762 490.813 352.321 491.263C352.879 491.713 353.586 491.936 354.301 491.889C354.747 491.906 355.192 491.825 355.604 491.652C356.016 491.48 356.385 491.219 356.686 490.889L357.514 491.86C356.905 492.482 356.128 492.915 355.279 493.105C354.429 493.296 353.543 493.237 352.726 492.935C351.909 492.633 351.198 492.101 350.676 491.404C350.155 490.706 349.847 489.873 349.788 489.004C349.759 488.444 349.845 487.883 350.043 487.357C350.24 486.832 350.544 486.352 350.936 485.95C351.328 485.548 351.798 485.231 352.319 485.019C352.839 484.807 353.397 484.706 353.958 484.72C354.516 484.707 355.07 484.81 355.586 485.023C356.102 485.237 356.567 485.555 356.953 485.958C357.338 486.361 357.636 486.84 357.826 487.365C358.016 487.889 358.094 488.448 358.057 489.004C358.042 489.159 358.013 489.312 357.971 489.461ZM351.288 488.376H356.614C356.532 487.728 356.216 487.132 355.726 486.7C355.235 486.268 354.604 486.03 353.951 486.03C353.298 486.03 352.667 486.268 352.176 486.7C351.686 487.132 351.37 487.728 351.288 488.376Z" fill="white"/>
<path d="M364.554 484.735V486.163H364.211C363.84 486.136 363.468 486.194 363.122 486.332C362.776 486.47 362.466 486.685 362.215 486.959C361.963 487.234 361.777 487.562 361.671 487.918C361.564 488.275 361.539 488.651 361.598 489.019V493.145H360.099V484.863H361.527V486.291C361.828 485.768 362.274 485.343 362.811 485.067C363.348 484.791 363.953 484.676 364.554 484.735Z" fill="white"/>
<g opacity="0.6">
<path d="M299.294 253.627L299.937 252.285C301.045 253.214 302.447 253.72 303.893 253.713C305.963 253.713 306.849 252.913 306.849 251.871C306.849 249.015 299.594 250.785 299.594 246.344C299.594 244.488 301.022 242.917 304.178 242.917C305.538 242.895 306.875 243.261 308.034 243.974L307.463 245.402C306.482 244.774 305.343 244.437 304.178 244.431C302.136 244.431 301.322 245.287 301.322 246.33C301.322 249.186 308.591 247.415 308.591 251.828C308.591 253.656 307.163 255.226 303.95 255.226C302.257 255.262 300.608 254.695 299.294 253.627Z" fill="#263238"/>
<path d="M310.504 243.103C310.506 242.959 310.537 242.817 310.594 242.685C310.651 242.553 310.734 242.434 310.837 242.334C310.941 242.235 311.063 242.157 311.197 242.105C311.331 242.053 311.475 242.028 311.618 242.032C311.76 242.026 311.902 242.048 312.035 242.098C312.168 242.147 312.29 242.223 312.393 242.32C312.497 242.417 312.58 242.533 312.638 242.663C312.697 242.792 312.728 242.932 312.732 243.074C312.732 243.369 312.615 243.653 312.406 243.862C312.197 244.071 311.914 244.188 311.618 244.188C311.323 244.188 311.04 244.071 310.831 243.862C310.622 243.653 310.504 243.369 310.504 243.074V243.103ZM310.79 245.959H312.446V255.041H310.79V245.959Z" fill="#263238"/>
<path d="M324.256 245.916V253.756C324.256 256.969 322.628 258.425 319.558 258.425C318.017 258.474 316.506 257.995 315.274 257.069L316.059 255.798C317.054 256.584 318.29 257.003 319.558 256.983C321.7 256.983 322.671 255.983 322.671 253.927V253.213C322.267 253.68 321.763 254.05 321.197 254.297C320.632 254.544 320.018 254.662 319.401 254.641C318.803 254.675 318.205 254.587 317.642 254.381C317.08 254.176 316.565 253.858 316.13 253.447C315.695 253.036 315.348 252.54 315.111 251.991C314.874 251.441 314.752 250.848 314.752 250.25C314.752 249.651 314.874 249.059 315.111 248.509C315.348 247.959 315.695 247.464 316.13 247.052C316.565 246.641 317.08 246.323 317.642 246.118C318.205 245.913 318.803 245.825 319.401 245.859C320.032 245.826 320.662 245.937 321.244 246.185C321.825 246.432 322.343 246.809 322.757 247.287V245.859L324.256 245.916ZM322.657 250.2C322.688 249.576 322.532 248.956 322.208 248.422C321.884 247.887 321.407 247.462 320.839 247.201C320.271 246.94 319.638 246.855 319.021 246.958C318.405 247.06 317.833 247.345 317.38 247.775C316.926 248.206 316.612 248.762 316.479 249.373C316.345 249.983 316.397 250.62 316.628 251.2C316.859 251.781 317.259 252.279 317.777 252.63C318.294 252.981 318.904 253.169 319.529 253.17C319.938 253.206 320.349 253.156 320.737 253.023C321.126 252.891 321.482 252.678 321.783 252.4C322.084 252.122 322.324 251.783 322.487 251.407C322.649 251.031 322.732 250.624 322.728 250.214L322.657 250.2Z" fill="#263238"/>
<path d="M336.022 249.771V254.998H334.366V249.9C334.366 248.115 333.481 247.244 331.924 247.244C331.529 247.218 331.132 247.279 330.763 247.424C330.394 247.569 330.062 247.793 329.789 248.08C329.516 248.368 329.311 248.712 329.186 249.088C329.061 249.464 329.021 249.863 329.068 250.257V254.941H327.426V245.859H329.011V247.287C329.401 246.803 329.901 246.42 330.471 246.172C331.04 245.923 331.661 245.816 332.281 245.859C332.796 245.824 333.313 245.903 333.794 246.09C334.275 246.277 334.71 246.567 335.066 246.94C335.423 247.313 335.694 247.76 335.859 248.25C336.024 248.739 336.08 249.258 336.022 249.771Z" fill="#263238"/>
<path d="M352.145 245.916V254.998H350.588V253.57C350.226 254.037 349.756 254.411 349.22 254.659C348.683 254.908 348.094 255.024 347.504 254.998C346.973 255.053 346.436 254.987 345.933 254.807C345.431 254.627 344.975 254.337 344.6 253.957C344.224 253.578 343.939 253.119 343.764 252.614C343.59 252.11 343.53 251.573 343.591 251.042V245.816H345.233V250.857C345.233 252.627 346.133 253.527 347.689 253.527C348.085 253.555 348.483 253.496 348.853 253.352C349.223 253.208 349.557 252.984 349.83 252.696C350.103 252.408 350.309 252.063 350.433 251.685C350.556 251.308 350.595 250.908 350.545 250.514V245.816L352.145 245.916Z" fill="#263238"/>
<path d="M364.682 250.457C364.715 251.07 364.619 251.683 364.4 252.257C364.182 252.831 363.847 253.353 363.415 253.79C362.984 254.226 362.466 254.568 361.895 254.794C361.324 255.019 360.712 255.122 360.098 255.098C359.496 255.121 358.895 255.005 358.345 254.757C357.795 254.509 357.31 254.137 356.928 253.67V258.354H355.286V245.959H356.857V247.387C357.234 246.889 357.726 246.491 358.29 246.225C358.855 245.959 359.475 245.833 360.098 245.859C360.709 245.832 361.318 245.933 361.887 246.155C362.456 246.377 362.972 246.715 363.404 247.148C363.835 247.58 364.171 248.098 364.392 248.668C364.612 249.237 364.711 249.847 364.682 250.457ZM363.026 250.457C362.998 249.86 362.796 249.284 362.444 248.801C362.092 248.318 361.607 247.949 361.047 247.739C360.488 247.529 359.879 247.487 359.296 247.62C358.714 247.752 358.182 248.052 357.769 248.484C357.355 248.915 357.076 249.458 356.968 250.045C356.86 250.633 356.926 251.239 357.159 251.79C357.391 252.34 357.78 252.81 358.278 253.142C358.775 253.473 359.358 253.652 359.956 253.656C360.372 253.664 360.786 253.586 361.171 253.427C361.556 253.268 361.904 253.03 362.192 252.73C362.481 252.429 362.704 252.072 362.847 251.681C362.991 251.289 363.052 250.873 363.026 250.457Z" fill="#263238"/>
</g>
<path d="M425.43 322.071H238.59V354.058H425.43V322.071Z" fill="white"/>
<g opacity="0.4">
<path d="M248.814 332.852H249.785V341.178H254.912V342.02H248.814V332.852Z" fill="#263238"/>
<path d="M261.552 337.75V342.034H260.667V340.963C260.407 341.345 260.051 341.652 259.635 341.853C259.219 342.053 258.757 342.141 258.296 342.106C256.74 342.106 255.783 341.292 255.783 340.092C255.783 338.893 256.454 338.15 258.439 338.15H260.624V337.736C260.624 336.551 259.953 335.908 258.668 335.908C257.833 335.897 257.023 336.186 256.383 336.722L255.955 336.023C256.77 335.391 257.78 335.063 258.811 335.094C259.174 335.05 259.542 335.088 259.889 335.205C260.236 335.321 260.552 335.514 260.815 335.769C261.078 336.023 261.28 336.333 261.408 336.676C261.535 337.019 261.585 337.386 261.552 337.75ZM260.624 339.95V338.821H258.468C257.126 338.821 256.697 339.35 256.697 340.064C256.697 340.778 257.34 341.349 258.439 341.349C258.905 341.378 259.367 341.257 259.76 341.006C260.153 340.754 260.455 340.384 260.624 339.95Z" fill="#263238"/>
<path d="M263.123 341.292L263.537 340.564C264.257 341.066 265.115 341.336 265.993 341.335C267.307 341.335 267.835 340.892 267.835 340.207C267.835 338.407 263.38 339.821 263.38 337.108C263.38 335.98 264.337 335.137 266.093 335.137C266.95 335.126 267.795 335.348 268.535 335.78L268.121 336.522C267.52 336.126 266.813 335.921 266.093 335.937C264.851 335.937 264.308 336.422 264.308 337.079C264.308 338.936 268.764 337.536 268.764 340.178C268.764 341.378 267.721 342.149 265.908 342.149C264.911 342.17 263.935 341.87 263.123 341.292Z" fill="#263238"/>
<path d="M274.176 341.606C273.77 341.928 273.265 342.1 272.748 342.092C272.476 342.121 272.201 342.089 271.944 341.998C271.686 341.907 271.452 341.76 271.259 341.567C271.066 341.374 270.918 341.14 270.827 340.882C270.737 340.624 270.705 340.35 270.734 340.078V335.923H269.492V335.137H270.734V333.624H271.662V335.137H273.747V335.923H271.662V340.035C271.638 340.2 271.651 340.368 271.701 340.526C271.751 340.685 271.836 340.83 271.95 340.951C272.064 341.072 272.204 341.166 272.36 341.225C272.515 341.284 272.682 341.307 272.848 341.292C273.222 341.303 273.588 341.176 273.876 340.935L274.176 341.606Z" fill="#263238"/>
<path d="M287.028 332.852V342.02H286.228L280.345 334.58V342.02H279.374V332.852H280.173L286.071 340.292V332.852H287.028Z" fill="#263238"/>
<path d="M295.082 337.75V342.034H294.168V340.963C293.91 341.348 293.555 341.656 293.138 341.857C292.721 342.058 292.258 342.144 291.797 342.106C290.241 342.106 289.284 341.292 289.284 340.092C289.284 338.893 289.97 338.15 291.955 338.15H294.168V337.736C294.168 336.551 293.497 335.908 292.212 335.908C291.377 335.897 290.566 336.186 289.927 336.722L289.498 336.023C290.312 335.388 291.323 335.059 292.354 335.094C292.716 335.053 293.083 335.092 293.428 335.21C293.773 335.327 294.088 335.52 294.349 335.775C294.61 336.029 294.811 336.338 294.938 336.68C295.065 337.022 295.114 337.387 295.082 337.75ZM294.154 339.95V338.821H291.983C290.655 338.821 290.227 339.35 290.227 340.064C290.227 340.778 290.869 341.349 291.969 341.349C292.437 341.381 292.902 341.262 293.298 341.01C293.694 340.758 293.998 340.387 294.168 339.95H294.154Z" fill="#263238"/>
<path d="M308.976 338.022V342.02H308.048V338.122C308.048 336.694 307.305 335.923 306.063 335.923C305.741 335.908 305.42 335.963 305.121 336.085C304.823 336.208 304.555 336.394 304.336 336.63C304.117 336.867 303.952 337.149 303.853 337.456C303.755 337.763 303.724 338.087 303.764 338.407V342.02H302.836V338.122C302.836 336.694 302.093 335.923 300.837 335.923C300.515 335.908 300.193 335.963 299.895 336.085C299.596 336.208 299.328 336.394 299.109 336.63C298.89 336.867 298.726 337.149 298.627 337.456C298.528 337.763 298.498 338.087 298.538 338.407V342.02H297.609V335.137H298.452V336.394C298.721 335.973 299.097 335.63 299.54 335.399C299.984 335.169 300.48 335.059 300.979 335.08C301.486 335.038 301.993 335.153 302.432 335.408C302.871 335.664 303.221 336.048 303.436 336.508C303.718 336.048 304.118 335.672 304.596 335.421C305.073 335.17 305.61 335.052 306.149 335.08C306.54 335.042 306.934 335.093 307.302 335.229C307.671 335.365 308.003 335.583 308.275 335.866C308.548 336.149 308.752 336.49 308.873 336.863C308.995 337.237 309.03 337.633 308.976 338.022Z" fill="#263238"/>
<path d="M317.53 338.864H311.818C311.838 339.2 311.924 339.529 312.071 339.831C312.219 340.134 312.424 340.404 312.676 340.627C312.928 340.85 313.222 341.021 313.54 341.13C313.859 341.239 314.195 341.285 314.531 341.263C314.928 341.276 315.322 341.202 315.687 341.047C316.052 340.891 316.379 340.658 316.645 340.364L317.159 340.963C316.664 341.48 316.028 341.84 315.33 341.997C314.632 342.155 313.903 342.103 313.234 341.848C312.565 341.594 311.986 341.148 311.569 340.567C311.152 339.985 310.916 339.294 310.89 338.579C310.866 338.124 310.936 337.669 311.096 337.243C311.255 336.816 311.5 336.427 311.816 336.099C312.132 335.771 312.512 335.511 312.932 335.336C313.353 335.161 313.804 335.074 314.26 335.08C314.714 335.071 315.166 335.157 315.586 335.332C316.006 335.506 316.385 335.766 316.699 336.095C317.013 336.424 317.256 336.815 317.411 337.242C317.566 337.67 317.631 338.125 317.601 338.579C317.544 338.664 317.53 338.764 317.53 338.864ZM311.818 338.179H316.702C316.702 337.531 316.444 336.91 315.986 336.452C315.528 335.994 314.907 335.737 314.26 335.737C313.612 335.737 312.991 335.994 312.533 336.452C312.075 336.91 311.818 337.531 311.818 338.179Z" fill="#263238"/>
</g>
<path d="M425.43 278.374H238.59V310.361H425.43V278.374Z" fill="white"/>
<g opacity="0.4">
<path d="M249.785 289.998V293.597H254.526V294.439H249.785V298.323H248.814V289.156H255.098V289.998H249.785Z" fill="#263238"/>
<path d="M256.569 289.256C256.566 289.119 256.604 288.984 256.678 288.87C256.752 288.755 256.859 288.665 256.985 288.611C257.111 288.557 257.25 288.543 257.384 288.569C257.518 288.595 257.642 288.66 257.738 288.757C257.835 288.854 257.901 288.977 257.927 289.111C257.953 289.246 257.938 289.384 257.884 289.51C257.831 289.636 257.741 289.743 257.626 289.817C257.511 289.891 257.376 289.93 257.24 289.927C257.062 289.927 256.891 289.856 256.765 289.73C256.639 289.604 256.569 289.434 256.569 289.256ZM256.768 291.44H257.697V298.323H256.768V291.44Z" fill="#263238"/>
<path d="M263.765 291.383V292.283H263.537C263.209 292.267 262.881 292.324 262.578 292.449C262.274 292.575 262.002 292.766 261.781 293.009C261.56 293.252 261.395 293.54 261.299 293.854C261.203 294.168 261.177 294.5 261.224 294.825V298.338H260.295V291.455H261.181V292.74C261.428 292.282 261.806 291.909 262.266 291.667C262.726 291.425 263.249 291.327 263.765 291.383Z" fill="#263238"/>
<path d="M264.537 297.538L264.951 296.795C265.665 297.313 266.525 297.588 267.407 297.581C268.721 297.581 269.249 297.124 269.249 296.453C269.249 294.653 264.794 296.067 264.794 293.34C264.794 292.226 265.75 291.383 267.507 291.383C268.365 291.365 269.211 291.587 269.949 292.026L269.535 292.768C268.934 292.372 268.227 292.167 267.507 292.183C266.265 292.183 265.722 292.668 265.722 293.325C265.722 295.182 270.177 293.782 270.177 296.424C270.177 297.609 269.135 298.38 267.321 298.38C266.327 298.406 265.35 298.111 264.537 297.538Z" fill="#263238"/>
<path d="M275.604 297.909C275.194 298.221 274.691 298.387 274.176 298.381C273.905 298.412 273.63 298.382 273.373 298.293C273.115 298.204 272.881 298.058 272.687 297.866C272.494 297.674 272.346 297.441 272.255 297.184C272.164 296.927 272.133 296.652 272.162 296.381V292.226H270.92V291.44H272.162V289.884H273.09V291.398H275.175V292.183H273.09V296.281C273.066 296.446 273.08 296.615 273.13 296.774C273.179 296.933 273.264 297.079 273.378 297.201C273.492 297.323 273.632 297.418 273.787 297.479C273.942 297.54 274.109 297.565 274.276 297.552C274.65 297.557 275.013 297.431 275.304 297.195L275.604 297.909Z" fill="#263238"/>
<path d="M288.456 289.156V298.323H287.656L281.773 290.884V298.323H280.802V289.156H281.601L287.499 296.596V289.156H288.456Z" fill="#263238"/>
<path d="M296.495 294.054V298.338H295.596V297.267C295.34 297.648 294.986 297.954 294.572 298.152C294.157 298.351 293.697 298.435 293.239 298.395C291.669 298.395 290.712 297.595 290.712 296.396C290.712 295.196 291.397 294.454 293.382 294.454H295.596V294.025C295.596 292.854 294.925 292.212 293.639 292.212C292.805 292.2 291.994 292.489 291.355 293.026L290.926 292.326C291.74 291.692 292.751 291.364 293.782 291.398C294.144 291.356 294.51 291.395 294.854 291.513C295.199 291.63 295.512 291.824 295.773 292.078C296.033 292.333 296.233 292.642 296.358 292.984C296.483 293.326 296.53 293.691 296.495 294.054ZM295.567 296.253V295.125H293.397C292.069 295.125 291.64 295.653 291.64 296.353C291.64 297.052 292.283 297.652 293.382 297.652C293.852 297.685 294.32 297.567 294.718 297.315C295.116 297.063 295.424 296.691 295.596 296.253H295.567Z" fill="#263238"/>
<path d="M310.39 294.325V298.323H309.462V294.425C309.462 292.997 308.719 292.226 307.477 292.226C307.155 292.211 306.833 292.267 306.535 292.389C306.236 292.511 305.968 292.697 305.749 292.934C305.53 293.17 305.366 293.452 305.267 293.759C305.168 294.066 305.138 294.391 305.178 294.711V298.323H304.249V294.425C304.249 292.997 303.507 292.226 302.25 292.226C301.928 292.211 301.607 292.267 301.308 292.389C301.01 292.511 300.742 292.697 300.523 292.934C300.304 293.17 300.139 293.452 300.041 293.759C299.942 294.066 299.911 294.391 299.951 294.711V298.323H299.023V291.44H299.88V292.74C300.149 292.319 300.525 291.976 300.968 291.745C301.412 291.515 301.908 291.405 302.407 291.426C302.914 291.385 303.42 291.499 303.86 291.755C304.299 292.01 304.649 292.394 304.863 292.854C305.143 292.392 305.543 292.015 306.022 291.763C306.5 291.511 307.037 291.395 307.577 291.426C307.962 291.392 308.351 291.443 308.714 291.578C309.077 291.713 309.405 291.927 309.675 292.205C309.944 292.483 310.148 292.817 310.272 293.184C310.396 293.551 310.436 293.941 310.39 294.325Z" fill="#263238"/>
<path d="M318.943 295.168H313.231C313.251 295.503 313.338 295.832 313.485 296.135C313.632 296.437 313.838 296.708 314.09 296.93C314.342 297.153 314.636 297.324 314.954 297.433C315.272 297.543 315.609 297.588 315.945 297.567C316.343 297.58 316.738 297.504 317.104 297.346C317.469 297.188 317.795 296.951 318.058 296.653L318.572 297.267C318.077 297.783 317.441 298.143 316.743 298.3C316.045 298.458 315.316 298.406 314.647 298.152C313.979 297.897 313.4 297.451 312.983 296.87C312.566 296.288 312.33 295.597 312.303 294.882C312.28 294.427 312.35 293.972 312.509 293.546C312.669 293.119 312.914 292.73 313.23 292.402C313.546 292.074 313.926 291.814 314.346 291.639C314.766 291.464 315.218 291.377 315.673 291.383C316.128 291.374 316.58 291.46 317 291.635C317.419 291.81 317.798 292.07 318.113 292.399C318.427 292.728 318.669 293.118 318.824 293.546C318.98 293.973 319.045 294.428 319.015 294.882C318.958 294.953 318.943 295.053 318.943 295.168ZM313.231 294.468H318.115C318.115 293.82 317.858 293.199 317.4 292.741C316.942 292.283 316.321 292.026 315.673 292.026C315.026 292.026 314.405 292.283 313.947 292.741C313.489 293.199 313.231 293.82 313.231 294.468Z" fill="#263238"/>
</g>
<path d="M168.29 550.18H166.933C166.933 548.166 168.604 500.985 176.815 493.06C185.254 484.849 195.179 492.946 195.265 493.06L194.408 494.088C194.037 493.788 185.311 486.705 177.743 494.088C169.932 501.528 168.304 549.694 168.29 550.18Z" fill="#352DFF"/>
<path d="M167.604 559.647L166.262 559.519C166.262 558.948 171.574 502.228 151.025 478.637L152.039 477.752C172.973 501.785 167.661 559.076 167.604 559.647Z" fill="#352DFF"/>
<path d="M168.261 553.593C168.09 550.908 164.134 487.905 179.928 473.339L180.842 474.339C165.519 488.419 169.56 552.879 169.603 553.493L168.261 553.593Z" fill="#352DFF"/>
<path d="M166.262 553.55C166.262 553.121 165.776 510.71 154.538 504.327C153.583 503.697 152.49 503.305 151.351 503.186C150.213 503.067 149.063 503.223 147.998 503.641C141.415 506.369 137.916 518.935 137.873 519.064L136.574 518.707C136.717 518.164 140.287 505.383 147.484 502.399C148.737 501.895 150.094 501.701 151.439 501.833C152.784 501.965 154.077 502.418 155.209 503.156C167.104 509.967 167.604 551.708 167.618 553.536L166.262 553.55Z" fill="#352DFF"/>
<path d="M170.888 553.578C170.803 552.15 169.075 520.106 178.171 508.211C180.599 505.055 183.284 503.556 186.197 503.77C192.665 504.212 197.621 512.98 197.892 513.352L196.721 514.023C196.721 513.937 191.837 505.455 186.097 505.112C183.683 504.926 181.37 506.255 179.242 509.039C170.446 520.463 172.217 553.179 172.231 553.507L170.888 553.578Z" fill="#352DFF"/>
<path d="M169.075 558.02L167.733 557.92C167.733 557.148 173.445 480.636 164.02 467.87L165.105 467.07C174.844 480.236 169.318 554.849 169.075 558.02Z" fill="#352DFF"/>
<path d="M144.87 510.01C144.87 510.01 150.697 512.166 148.969 517.236C147.241 522.305 128.791 530.659 128.791 530.659C128.791 530.659 121.066 523.59 128.163 512.095C135.26 500.6 144.713 506.383 144.87 510.01Z" fill="#352DFF"/>
<path opacity="0.2" d="M144.87 510.01C144.87 510.01 150.697 512.166 148.969 517.236C147.241 522.305 128.791 530.659 128.791 530.659C128.791 530.659 121.066 523.59 128.163 512.095C135.26 500.6 144.713 506.383 144.87 510.01Z" fill="black"/>
<path d="M170.217 500.357C170.217 500.357 164.005 500.1 163.648 505.441C163.291 510.781 177.072 525.604 177.072 525.604C177.072 525.604 186.925 522.034 184.811 508.682C182.698 495.33 171.759 497.058 170.217 500.357Z" fill="#352DFF"/>
<path opacity="0.2" d="M170.217 500.357C170.217 500.357 164.005 500.1 163.648 505.441C163.291 510.781 177.072 525.604 177.072 525.604C177.072 525.604 186.925 522.034 184.811 508.682C182.698 495.33 171.759 497.058 170.217 500.357Z" fill="black"/>
<path d="M175.472 474.739C175.472 474.739 171.331 474.296 171.66 471.783C171.988 469.269 187.753 462.772 197.05 473.211C197.05 473.211 191.095 483.435 182.498 483.578C173.902 483.721 175.472 474.739 175.472 474.739Z" fill="#352DFF"/>
<path opacity="0.2" d="M175.472 474.739C175.472 474.739 171.331 474.296 171.66 471.783C171.988 469.269 187.753 462.772 197.05 473.211C197.05 473.211 191.095 483.435 182.498 483.578C173.902 483.721 175.472 474.739 175.472 474.739Z" fill="black"/>
<path d="M167.761 468.612C167.761 468.612 171.503 470.426 172.559 468.113C173.616 465.799 163.663 451.962 150.226 455.946C150.226 455.946 149.869 467.77 157.094 472.439C164.32 477.109 167.761 468.612 167.761 468.612Z" fill="#352DFF"/>
<path opacity="0.2" d="M167.761 468.612C167.761 468.612 171.503 470.426 172.559 468.113C173.616 465.799 163.663 451.962 150.226 455.946C150.226 455.946 149.869 467.77 157.094 472.439C164.32 477.109 167.761 468.612 167.761 468.612Z" fill="black"/>
<path d="M187.354 507.982C187.354 507.982 184.498 505.669 187.582 504.541C190.666 503.413 205.789 503.741 205.946 518.721C205.946 518.721 188.325 521.648 186.154 515.936C183.983 510.224 187.354 507.982 187.354 507.982Z" fill="#352DFF"/>
<path opacity="0.2" d="M187.354 507.982C187.354 507.982 184.498 505.669 187.582 504.541C190.666 503.413 205.789 503.741 205.946 518.721C205.946 518.721 188.325 521.648 186.154 515.936C183.983 510.224 187.354 507.982 187.354 507.982Z" fill="black"/>
<path d="M151.368 474.367C151.368 474.367 154.224 472.054 151.139 470.94C148.055 469.826 132.932 470.126 132.775 485.106C132.775 485.106 150.397 488.047 152.567 482.335C154.738 476.623 151.368 474.367 151.368 474.367Z" fill="#352DFF"/>
<path opacity="0.2" d="M151.368 474.367C151.368 474.367 154.224 472.054 151.139 470.94C148.055 469.826 132.932 470.126 132.775 485.106C132.775 485.106 150.397 488.047 152.567 482.335C154.738 476.623 151.368 474.367 151.368 474.367Z" fill="black"/>
<path d="M160.736 486.434C160.736 486.434 160.993 483.578 158.722 484.735C156.452 485.891 148.583 494.345 156.752 502.413C156.752 502.413 167.761 494.259 165.777 490.018C163.792 485.777 160.736 486.434 160.736 486.434Z" fill="#352DFF"/>
<path opacity="0.2" d="M160.736 486.434C160.736 486.434 160.993 483.578 158.722 484.735C156.452 485.891 148.583 494.345 156.752 502.413C156.752 502.413 167.761 494.259 165.777 490.018C163.792 485.777 160.736 486.434 160.736 486.434Z" fill="black"/>
<path d="M189.924 490.432C189.924 490.432 188.21 488.19 190.723 487.919C193.237 487.648 204.432 490.632 201.819 501.828C201.819 501.828 188.167 500.8 187.539 496.116C186.911 491.432 189.924 490.432 189.924 490.432Z" fill="#352DFF"/>
<path opacity="0.2" d="M189.924 490.432C189.924 490.432 188.21 488.19 190.723 487.919C193.237 487.648 204.432 490.632 201.819 501.828C201.819 501.828 188.167 500.8 187.539 496.116C186.911 491.432 189.924 490.432 189.924 490.432Z" fill="black"/>
<path d="M145.884 595.076H190.024L195.893 552.15H140.015L145.884 595.076Z" fill="#263238"/>
<path opacity="0.2" d="M145.884 595.076H190.024L195.893 552.15H140.015L145.884 595.076Z" fill="white"/>
<path d="M201.434 548.666V552.75C201.434 554.061 200.913 555.317 199.987 556.244C199.06 557.171 197.803 557.691 196.493 557.691H138.873C137.563 557.691 136.306 557.171 135.379 556.244C134.453 555.317 133.932 554.061 133.932 552.75V548.666H201.434Z" fill="#263238"/>
<path d="M569.23 141.815H528.203C524.855 141.815 521.644 143.145 519.277 145.512C516.91 147.879 515.58 151.09 515.58 154.438V190.138C515.578 191.797 515.903 193.44 516.536 194.973C517.17 196.507 518.1 197.9 519.272 199.074C520.444 200.247 521.837 201.178 523.369 201.814C524.902 202.449 526.544 202.776 528.203 202.776H540.184L537.328 214.043L548.752 202.776H569.301C572.653 202.776 575.867 201.444 578.237 199.074C580.607 196.704 581.939 193.49 581.939 190.138V154.438C581.939 152.773 581.609 151.125 580.97 149.587C580.33 148.05 579.392 146.655 578.211 145.482C577.03 144.308 575.628 143.38 574.087 142.751C572.545 142.122 570.895 141.803 569.23 141.815Z" fill="#352DFF"/>
<path opacity="0.7" d="M569.23 141.815H528.203C524.855 141.815 521.644 143.145 519.277 145.512C516.91 147.879 515.58 151.09 515.58 154.438V190.138C515.578 191.797 515.903 193.44 516.536 194.973C517.17 196.507 518.1 197.9 519.272 199.074C520.444 200.247 521.837 201.178 523.369 201.814C524.902 202.449 526.544 202.776 528.203 202.776H540.184L537.328 214.043L548.752 202.776H569.301C572.653 202.776 575.867 201.444 578.237 199.074C580.607 196.704 581.939 193.49 581.939 190.138V154.438C581.939 152.773 581.609 151.125 580.97 149.587C580.33 148.05 579.392 146.655 578.211 145.482C577.03 144.308 575.628 143.38 574.087 142.751C572.545 142.122 570.895 141.803 569.23 141.815Z" fill="white"/>
<path d="M548.724 188.068C557.517 188.068 564.646 180.939 564.646 172.145C564.646 163.352 557.517 156.223 548.724 156.223C539.93 156.223 532.801 163.352 532.801 172.145C532.801 180.939 539.93 188.068 548.724 188.068Z" fill="white"/>
<path d="M548.724 151.782C544.696 151.782 540.759 152.976 537.41 155.214C534.062 157.451 531.452 160.632 529.91 164.353C528.369 168.074 527.966 172.168 528.752 176.118C529.537 180.068 531.477 183.697 534.325 186.544C537.173 189.392 540.801 191.332 544.751 192.117C548.701 192.903 552.795 192.5 556.516 190.959C560.237 189.417 563.418 186.807 565.655 183.459C567.893 180.11 569.087 176.173 569.087 172.145C569.089 169.471 568.563 166.822 567.541 164.35C566.518 161.879 565.018 159.633 563.127 157.742C561.236 155.851 558.99 154.351 556.519 153.328C554.047 152.306 551.398 151.78 548.724 151.782ZM560.276 166.062L548.01 180.513C547.835 180.722 547.617 180.89 547.37 181.003C547.123 181.117 546.854 181.174 546.582 181.17C546.31 181.172 546.041 181.114 545.795 181.001C545.548 180.887 545.329 180.721 545.154 180.513L537.171 171.103C537.002 170.917 536.873 170.699 536.79 170.462C536.708 170.224 536.674 169.973 536.691 169.722C536.707 169.472 536.774 169.227 536.887 169.003C537.001 168.779 537.158 168.58 537.35 168.418C537.542 168.256 537.764 168.134 538.004 168.06C538.244 167.985 538.496 167.96 538.746 167.985C538.996 168.011 539.238 168.086 539.458 168.207C539.678 168.328 539.872 168.492 540.027 168.69L546.582 176.415L557.42 163.649C557.746 163.29 558.198 163.071 558.682 163.039C559.166 163.006 559.643 163.163 560.014 163.476C560.384 163.789 560.618 164.234 560.667 164.716C560.716 165.199 560.576 165.681 560.276 166.062Z" fill="#352DFF"/>
<path d="M562.118 362.084C562.118 362.084 537.256 358.942 499.586 369.224C499.586 369.224 493.531 301.908 494.245 292.654C494.959 283.401 552.408 286.114 552.408 286.114C552.408 286.114 553.835 313.06 557.577 329.311C561.318 345.562 564.06 358.956 562.118 362.084Z" fill="#352DFF"/>
<path opacity="0.2" d="M562.118 362.084C562.118 362.084 537.256 358.942 499.586 369.224C499.586 369.224 493.531 301.908 494.245 292.654C494.959 283.401 552.408 286.114 552.408 286.114C552.408 286.114 553.835 313.06 557.577 329.311C561.318 345.562 564.06 358.956 562.118 362.084Z" fill="black"/>
<path d="M481.421 584.937L491.56 587.808L493.974 572.028L495.273 563.589L485.134 560.718L483.406 572.028L481.421 584.937Z" fill="#E4897B"/>
<path d="M539.712 585.766L550.165 587.151L550.265 572.028L550.337 562.632L539.869 561.261L539.798 572.028L539.712 585.766Z" fill="#E4897B"/>
<path opacity="0.2" d="M539.87 561.261L539.798 572.028H550.266L550.337 562.632L539.87 561.261Z" fill="black"/>
<path opacity="0.2" d="M483.407 572.028H493.974L495.273 563.589L485.135 560.718L483.407 572.028Z" fill="black"/>
<path d="M436.411 298.181L426.344 295.21L428.186 306.706C428.186 306.706 437.325 308.805 438.182 304.05L436.411 298.181Z" fill="#E4897B"/>
<path d="M416.291 297.881L421.231 307.22L428.186 306.706L426.344 295.21L416.291 297.881Z" fill="#E4897B"/>
<path d="M450.306 301.122L433.769 297.424L432.27 305.449L447.278 309.105L450.306 301.122Z" fill="#E4897B"/>
<path d="M500.328 293.868L499.357 295.025C497.272 297.467 492.217 303.364 486.948 308.448C482.664 312.589 478.38 316.202 475.524 316.93C467.427 319.015 437.996 310.347 437.996 310.347L441.038 298.409C441.038 298.409 468.455 302.05 470.583 302.05C472.197 302.05 488.876 277.889 492.917 275.904L500.328 293.868Z" fill="#352DFF"/>
<path opacity="0.2" d="M499.357 295.025C497.272 297.467 492.217 303.364 486.948 308.448C488.004 300.08 491.075 292.397 495.116 287.542C495.493 287.073 495.924 286.652 496.401 286.285L499.357 295.025Z" fill="black"/>
<path d="M481.55 583.352L493.06 583.052C493.267 583.046 493.471 583.11 493.637 583.235C493.803 583.359 493.922 583.537 493.974 583.738L496.401 593.005C496.459 593.227 496.467 593.459 496.423 593.685C496.379 593.91 496.285 594.122 496.148 594.306C496.01 594.49 495.834 594.64 495.63 594.746C495.427 594.852 495.203 594.911 494.973 594.919C490.818 594.919 484.806 594.919 479.594 595.019C473.482 595.19 469.598 594.89 462.458 595.019C458.174 595.133 456.746 590.821 458.574 590.378C466.756 588.35 472.111 588.75 479.08 584.18C479.815 583.69 480.668 583.404 481.55 583.352Z" fill="#263238"/>
<path d="M480.55 584.837C478.865 585.209 475.866 585.708 474.667 584.723C474.492 584.578 474.354 584.394 474.265 584.186C474.175 583.977 474.137 583.75 474.153 583.524C474.152 583.388 474.188 583.254 474.255 583.136C474.323 583.018 474.421 582.92 474.538 582.852C475.809 582.096 480.108 584.138 480.607 584.366C480.651 584.39 480.688 584.425 480.713 584.468C480.738 584.51 480.751 584.559 480.75 584.609C480.748 584.664 480.727 584.717 480.69 584.758C480.654 584.8 480.605 584.828 480.55 584.837ZM474.838 583.252H474.753C474.705 583.28 474.665 583.319 474.638 583.367C474.61 583.415 474.596 583.469 474.596 583.524C474.584 583.671 474.607 583.82 474.664 583.956C474.722 584.093 474.811 584.214 474.924 584.309C475.595 584.866 477.337 584.923 479.651 584.466C477.98 583.766 475.652 582.952 474.867 583.252H474.838Z" fill="#352DFF"/>
<path d="M480.55 584.837H480.379C479.079 584.295 476.481 582.096 476.623 580.91C476.623 580.625 476.852 580.268 477.537 580.182C477.789 580.149 478.045 580.166 478.29 580.232C478.535 580.299 478.764 580.413 478.965 580.568C480.393 581.639 480.722 584.452 480.75 584.566C480.754 584.609 480.747 584.653 480.73 584.693C480.712 584.733 480.685 584.768 480.65 584.795L480.55 584.837ZM477.352 580.739C477.137 580.81 477.123 580.925 477.123 580.967C477.037 581.681 478.808 583.424 480.136 584.166C479.983 582.967 479.453 581.847 478.623 580.967C478.482 580.849 478.317 580.762 478.139 580.713C477.962 580.664 477.776 580.653 477.594 580.682C477.511 580.689 477.429 580.708 477.352 580.739Z" fill="#352DFF"/>
<path d="M540.127 583.352L551.637 583.052C551.846 583.045 552.052 583.109 552.22 583.233C552.389 583.358 552.51 583.536 552.565 583.738L554.978 593.005C555.039 593.228 555.048 593.461 555.006 593.687C554.963 593.913 554.869 594.126 554.731 594.311C554.594 594.495 554.416 594.646 554.211 594.752C554.006 594.857 553.78 594.914 553.55 594.919C549.395 594.919 543.383 594.919 538.156 595.019C532.059 595.19 528.16 594.89 521.02 595.019C516.736 595.133 515.308 590.821 517.136 590.378C525.319 588.35 530.659 588.75 537.628 584.18C538.372 583.685 539.235 583.399 540.127 583.352Z" fill="#263238"/>
<path d="M539.142 584.837C537.457 585.209 534.443 585.708 533.258 584.723C533.083 584.578 532.946 584.394 532.856 584.186C532.767 583.977 532.728 583.75 532.744 583.524C532.744 583.388 532.779 583.254 532.847 583.136C532.914 583.018 533.012 582.92 533.13 582.852C534.386 582.096 538.699 584.138 539.184 584.366C539.232 584.385 539.272 584.419 539.298 584.463C539.324 584.507 539.334 584.558 539.327 584.609C539.323 584.661 539.304 584.711 539.27 584.752C539.237 584.793 539.192 584.823 539.142 584.837ZM533.43 583.252H533.344C533.297 583.279 533.258 583.319 533.233 583.367C533.208 583.415 533.197 583.469 533.201 583.524C533.187 583.671 533.209 583.821 533.267 583.958C533.324 584.095 533.414 584.215 533.53 584.309C534.201 584.866 535.929 584.923 538.256 584.466C536.557 583.766 534.229 582.952 533.444 583.252H533.43Z" fill="#352DFF"/>
<path d="M539.141 584.837H538.956C537.67 584.295 535.057 582.096 535.214 580.91C535.214 580.625 535.429 580.268 536.114 580.182C536.366 580.148 536.622 580.164 536.867 580.23C537.112 580.296 537.342 580.411 537.542 580.568C538.541 581.681 539.165 583.079 539.327 584.566C539.334 584.61 539.329 584.654 539.311 584.695C539.293 584.736 539.264 584.77 539.227 584.794L539.141 584.837ZM535.928 580.739C535.728 580.81 535.714 580.925 535.714 580.967C535.614 581.681 537.399 583.424 538.727 584.166C538.564 582.97 538.035 581.853 537.214 580.967C537.072 580.85 536.907 580.763 536.73 580.714C536.553 580.665 536.367 580.654 536.185 580.682L535.928 580.739Z" fill="#352DFF"/>
<path d="M561.276 355.943C566.816 379.948 557.306 568.801 557.306 568.801H538.942L531.088 411.421L502.171 568.801L482.536 567.373C495.388 445.45 506.712 372.665 506.712 372.665V363.469L561.276 355.943Z" fill="#263238"/>
<path opacity="0.4" d="M482.536 567.373L502.171 568.801L524.933 444.908L531.088 411.421L538.942 568.801H557.306C557.306 568.801 566.816 379.948 561.276 355.943L506.683 363.469V372.665C506.683 372.665 495.373 445.45 482.536 567.373Z" fill="white"/>
<path d="M551.379 267.036C550.816 278.513 551.107 290.017 552.25 301.451C553.021 309.448 554.078 317.002 555.206 323.813C557.848 339.793 560.847 351.773 561.275 355.957L506.683 363.483C486.776 307.791 494.273 275.433 494.273 275.433C498.355 273.747 502.538 272.316 506.797 271.149C507.697 270.906 508.611 270.677 509.553 270.463C517.221 268.954 524.968 267.886 532.758 267.264C534.186 267.136 535.743 267.036 537.199 266.965C544.653 266.593 551.379 267.036 551.379 267.036Z" fill="#263238"/>
<path d="M522.162 241.975C522.562 249.614 523.376 263.952 529.731 267.593C529.731 267.593 525.775 275.118 517.222 275.89C510.753 276.461 511.181 270.078 511.181 270.078C514.923 267.293 514.037 262.566 511.181 257.226L522.162 241.975Z" fill="#E4897B"/>
<path opacity="0.2" d="M517.679 248.201L511.224 257.226C511.904 258.46 512.477 259.75 512.938 261.081C515.937 259.882 519.378 255.369 518.878 252.099C518.722 250.737 518.315 249.415 517.679 248.201Z" fill="black"/>
<path d="M494.316 226.595C493.074 230.565 493.76 238.704 499.286 236.063C504.812 233.421 496.458 219.783 494.316 226.595Z" fill="#263238"/>
<path d="M522.876 231.964C523.49 242.146 524.304 248.072 519.863 253.841C513.109 262.509 500.028 259.282 496.373 249.457C493.088 240.604 492.646 225.438 502.085 220.297C504.177 219.159 506.524 218.57 508.906 218.586C511.288 218.601 513.627 219.221 515.704 220.386C517.781 221.552 519.529 223.226 520.783 225.25C522.037 227.275 522.758 229.585 522.876 231.964Z" fill="#E4897B"/>
<path d="M515.736 226.424V215C515.736 215 527.846 214.1 527.303 220.298C534.015 223.625 530.845 234.063 521.834 239.176C516.893 235.22 517.464 225.71 517.464 225.71C516.936 225.981 516.336 226.209 515.736 226.424Z" fill="#263238"/>
<path d="M527.803 239.904C527.57 241.149 527.09 242.336 526.391 243.393C525.692 244.45 524.788 245.356 523.733 246.059C520.877 247.929 518.407 245.63 518.307 242.417C518.221 239.561 519.578 235.049 522.862 234.478C523.581 234.366 524.316 234.433 525.002 234.675C525.687 234.917 526.302 235.325 526.792 235.862C527.281 236.4 527.63 237.05 527.807 237.756C527.983 238.461 527.982 239.199 527.803 239.904Z" fill="#E4897B"/>
<path d="M507.84 236.505C507.94 237.334 507.583 238.048 507.04 238.105C506.498 238.162 505.983 237.548 505.883 236.677C505.784 235.806 506.141 235.134 506.669 235.077C507.197 235.02 507.74 235.62 507.84 236.505Z" fill="#263238"/>
<path d="M498.5 237.548C498.6 238.376 498.243 239.09 497.701 239.147C497.158 239.204 496.644 238.59 496.544 237.719C496.444 236.848 496.801 236.177 497.344 236.12C497.886 236.063 498.372 236.72 498.5 237.548Z" fill="#263238"/>
<path d="M501.514 237.619C500.792 240.173 499.72 242.614 498.329 244.873C498.945 245.19 499.621 245.373 500.313 245.41C501.004 245.446 501.696 245.337 502.342 245.088L501.514 237.619Z" fill="#DE5753"/>
<path d="M507.154 247.744C506.802 247.833 506.444 247.9 506.083 247.944C506.019 247.944 505.957 247.918 505.911 247.872C505.866 247.827 505.84 247.765 505.84 247.701C505.84 247.636 505.866 247.575 505.911 247.529C505.957 247.484 506.019 247.458 506.083 247.458C507.109 247.365 508.098 247.032 508.971 246.486C509.844 245.941 510.577 245.197 511.11 244.316C511.122 244.288 511.14 244.262 511.163 244.24C511.185 244.218 511.212 244.202 511.242 244.191C511.271 244.18 511.303 244.176 511.334 244.178C511.365 244.18 511.396 244.188 511.424 244.202C511.453 244.216 511.479 244.235 511.501 244.259C511.523 244.284 511.54 244.312 511.55 244.342C511.561 244.373 511.565 244.405 511.563 244.438C511.561 244.47 511.553 244.502 511.538 244.531C511.071 245.342 510.44 246.046 509.685 246.6C508.93 247.153 508.068 247.543 507.154 247.744Z" fill="#263238"/>
<path d="M510.353 233.178C510.267 233.198 510.176 233.196 510.091 233.171C510.006 233.146 509.929 233.099 509.867 233.035C509.454 232.582 508.94 232.231 508.368 232.011C507.795 231.79 507.179 231.706 506.569 231.764C506.506 231.779 506.44 231.78 506.377 231.768C506.313 231.757 506.253 231.732 506.199 231.696C506.146 231.66 506.1 231.613 506.065 231.558C506.031 231.504 506.008 231.443 505.998 231.379C505.985 231.316 505.985 231.251 505.998 231.188C506.011 231.126 506.036 231.066 506.071 231.013C506.107 230.96 506.153 230.914 506.207 230.879C506.26 230.844 506.32 230.82 506.383 230.808C507.154 230.716 507.936 230.809 508.663 231.08C509.391 231.35 510.044 231.791 510.567 232.364C510.614 232.408 510.651 232.461 510.676 232.52C510.702 232.579 510.715 232.643 510.715 232.707C510.715 232.771 510.702 232.834 510.676 232.893C510.651 232.952 510.614 233.005 510.567 233.05C510.506 233.108 510.433 233.152 510.353 233.178Z" fill="#263238"/>
<path d="M494.088 234.792C493.996 234.827 493.894 234.827 493.803 234.792C493.682 234.749 493.582 234.661 493.526 234.546C493.47 234.431 493.462 234.299 493.503 234.178C493.739 233.443 494.149 232.776 494.698 232.233C495.248 231.691 495.92 231.29 496.659 231.065C496.784 231.032 496.916 231.051 497.027 231.117C497.138 231.182 497.219 231.289 497.251 231.414C497.283 231.539 497.265 231.672 497.199 231.783C497.133 231.894 497.026 231.975 496.901 232.007C496.317 232.187 495.787 232.508 495.356 232.941C494.925 233.374 494.607 233.907 494.431 234.492C494.404 234.567 494.358 234.633 494.298 234.686C494.238 234.738 494.166 234.775 494.088 234.792Z" fill="#263238"/>
<path d="M521.106 230.651C521.106 230.651 513.966 228.037 510.71 223.896C510.71 223.896 504.227 225.595 502.899 228.18C502.293 227.661 501.9 226.936 501.798 226.145C501.695 225.354 501.889 224.553 502.342 223.896C502.342 223.896 497.486 224.924 496.53 228.18C495.741 227.804 495.093 227.186 494.682 226.414C494.27 225.643 494.117 224.761 494.245 223.896C494.245 223.896 492.089 224.71 491.389 228.18C491.389 228.18 486.034 217.013 503.727 213.814C502.388 213.36 500.985 213.124 499.571 213.115C499.571 213.115 511.923 208.131 521.705 212.686C531.487 217.242 529.788 226.067 521.106 230.651Z" fill="#263238"/>
<path d="M565.488 365.568L548.352 367.853C548.352 367.853 541.283 318.458 538.17 302.507V268.464L547.124 266.108L554.064 268.464C555.967 275.313 557.432 282.277 558.448 289.313C559.291 294.654 560.047 300.366 560.719 306.149C561.647 314.031 562.418 322.057 563.075 329.568C564.103 341.692 564.788 352.416 565.16 358.971C565.374 363.083 565.488 365.568 565.488 365.568Z" fill="#352DFF"/>
<path d="M538.184 302.479C538.184 302.479 539.612 278.446 547.138 266.051C547.138 266.051 546.952 262.509 545.453 261.938C543.954 261.367 538.184 264.794 538.184 264.794C538.184 264.794 534.6 262.338 533.815 263.48C533.029 264.623 531.116 272.22 538.184 302.479Z" fill="#352DFF"/>
<path opacity="0.7" d="M538.184 302.479C538.184 302.479 539.612 278.446 547.138 266.051C547.138 266.051 546.952 262.509 545.453 261.938C543.954 261.367 538.184 264.794 538.184 264.794C538.184 264.794 534.6 262.338 533.815 263.48C533.029 264.623 531.116 272.22 538.184 302.479Z" fill="white"/>
<path d="M499.229 372.151L501.185 373.579C501.185 373.579 498.329 357.657 499.5 317.387C499.5 315.445 499.629 313.574 499.7 311.789C501.128 277.717 506.44 271.52 506.84 271.149L501.899 272.834L492.946 275.918C490.247 304.978 499.229 372.151 499.229 372.151Z" fill="#352DFF"/>
<path d="M500 305.92C500 305.92 495.059 282.558 496.53 274.504C498.001 266.45 503.27 270.035 503.27 270.035C503.27 270.035 508.111 266.122 509.553 270.435C509.553 270.435 502.899 275.118 500 305.92Z" fill="#352DFF"/>
<path opacity="0.7" d="M500 305.92C500 305.92 495.059 282.558 496.53 274.504C498.001 266.45 503.27 270.035 503.27 270.035C503.27 270.035 508.111 266.122 509.553 270.435C509.553 270.435 502.899 275.118 500 305.92Z" fill="white"/>
<path opacity="0.2" d="M560.69 306.092C553.379 301.993 552.408 291.298 552.408 291.298C552.85 291.126 555.564 290.198 558.42 289.256C559.262 294.596 560.019 300.308 560.69 306.092Z" fill="black"/>
<path opacity="0.2" d="M524.933 444.908L531.088 411.421L529.902 393.7C529.902 393.7 521.463 424.43 524.933 444.908Z" fill="black"/>
<path opacity="0.2" d="M565.131 358.914C560.533 358.599 556.563 358.299 556.563 358.299L555.692 339.607C557.125 338.71 558.846 338.393 560.504 338.722C561.634 335.735 562.49 332.652 563.06 329.511C564.06 341.635 564.76 352.373 565.131 358.914Z" fill="black"/>
<path d="M566.702 329.497L557.748 343.877L564.831 347.946L573.242 334.994L566.702 329.497Z" fill="#E4897B"/>
<path d="M553.678 268.235C559.705 268.892 585.323 304.05 586.451 314.645C587.579 325.241 571.4 343.534 571.4 343.534L560.604 337.179C560.604 337.179 571.571 320.315 572.142 315.759C572.714 311.204 552.079 292.797 552.079 292.797C550.519 288.557 549.66 284.09 549.537 279.574C549.252 271.834 553.678 268.235 553.678 268.235Z" fill="#352DFF"/>
<path d="M555.678 339.621C555.678 339.621 564.888 341.592 568.601 347.39C568.601 347.39 564.745 359.456 561.989 360.77C559.233 362.084 552.408 362.084 552.408 362.084C552.408 362.084 551.965 348.66 555.678 339.621Z" fill="#352DFF"/>
</svg>
